<?xml version="1.0" encoding="utf-8"?>
<!-- Generator: Adobe Illustrator 24.1.2, SVG Export Plug-In . SVG Version: 6.00 Build 0)  -->
<svg version="1.1" id="Layer_1" xmlns="http://www.w3.org/2000/svg" xmlns:xlink="http://www.w3.org/1999/xlink" x="0px" y="0px"
	 viewBox="0 0 24 24" style="enable-background:new 0 0 24 24;" xml:space="preserve">
<style type="text/css">
	.st0{fill:#E00206;}
</style>
<path class="st0" d="M12,0C5.373,0,0,5.373,0,12s5.373,12,12,12s12-5.373,12-12S18.627,0,12,0z M11.339,15.809
	c-0.005,0.11-0.098,0.196-0.208,0.191c-0.002,0-0.005,0-0.007,0H9.216c-0.11,0.008-0.206-0.074-0.215-0.184c0-0.002,0-0.004,0-0.007
	V8.19C9.006,8.08,9.1,7.994,9.21,8c0.002,0,0.004,0,0.006,0h1.908c0.11-0.008,0.206,0.074,0.215,0.184c0,0.002,0,0.004,0,0.006
	V15.809z M14.999,15.809c-0.005,0.11-0.098,0.196-0.208,0.191c-0.002,0-0.004,0-0.006,0h-1.907c-0.11,0.008-0.206-0.075-0.214-0.185
	c0-0.002,0-0.004,0-0.006V8.19c0.005-0.11,0.099-0.195,0.209-0.19c0.002,0,0.003,0,0.005,0h1.907
	c0.11-0.008,0.206,0.075,0.214,0.185c0,0.002,0,0.003,0,0.005V15.809z"/>
</svg>
