<svg
    xmlns="http://www.w3.org/2000/svg"
    viewBox="0 0 24 24"
    id="vector">
    <path
        id="path"
        d="M 12 0 C 5.373 0 0 5.373 0 12 C 0 18.627 5.373 24 12 24 C 18.627 24 24 18.627 24 12 C 24 5.373 18.627 0 12 0 Z M 11.339 15.809 C 11.334 15.919 11.241 16.005 11.131 16 C 11.129 16 11.126 16 11.124 16 L 9.216 16 C 9.106 16.008 9.01 15.926 9.001 15.816 C 9.001 15.814 9.001 15.812 9.001 15.809 L 9.001 8.19 C 9.006 8.08 9.1 7.994 9.21 8 C 9.212 8 9.214 8 9.216 8 L 11.124 8 C 11.234 7.992 11.33 8.074 11.339 8.184 C 11.339 8.186 11.339 8.188 11.339 8.19 L 11.339 15.809 Z M 14.999 15.809 C 14.994 15.919 14.901 16.005 14.791 16 C 14.789 16 14.787 16 14.785 16 L 12.878 16 C 12.768 16.008 12.672 15.925 12.664 15.815 C 12.664 15.813 12.664 15.811 12.664 15.809 L 12.664 8.19 C 12.669 8.08 12.763 7.995 12.873 8 C 12.875 8 12.876 8 12.878 8 L 14.785 8 C 14.895 7.992 14.991 8.075 14.999 8.185 C 14.999 8.187 14.999 8.188 14.999 8.19 L 14.999 15.809 Z"
        fill="#000000"/>
</svg>
