<?xml version="1.0" encoding="UTF-8"?>
<svg id="Latvijas_Radio_logo" xmlns="http://www.w3.org/2000/svg" viewBox="0 0 661.1 337.5">
  <defs>
    <style>
      .cls-1 {
        fill: #e00008;
      }

      .cls-2 {
        fill: #fff;
      }
    </style>
  </defs>
  <g>
    <rect class="cls-1" width="337.5" height="337.5"/>
    <path class="cls-2" d="M55,283.4h84.6c1.9-91.2,51.2-140.7,143-143.9V54.9c-67.4,1.8-123.7,22.9-163.3,61.4-41,40-63.2,97.7-64.3,167.1Z"/>
  </g>
  <g>
    <path class="cls-2" d="M404.3,189.5h14.9v9.2h-25.4v-54h10.5v44.8Z"/>
    <path class="cls-2" d="M462.2,198.7h-9.9v-3.2h-.1c-2.1,2.8-5.9,4.4-9.5,4.4-10.3,0-16.2-9.4-16.2-18.9s5.9-18.6,16-18.6c3.7,0,7.4,1.6,9.8,4.4v-3.3h9.9v35.2h0ZM453.4,181.1c0-4.7-3.2-9.8-8.4-9.8s-8.3,5.1-8.3,9.8,3.2,9.9,8.3,9.9,8.4-5.2,8.4-9.9Z"/>
    <path class="cls-2" d="M487.1,198.7h-10v-26.7h-4.4v-8.5h4.4v-11.9h10v11.9h6.2v8.5h-6.2v26.7Z"/>
    <path class="cls-2" d="M519.6,183.4l7.2-19.8h11l-16.2,35.9h-5.2l-16.1-35.9h11l8.3,19.8Z"/>
    <path class="cls-2" d="M557.8,148.8c0,3.3-2.6,5.9-5.9,5.9s-5.9-2.6-5.9-5.9,2.7-5.9,5.9-5.9c3.2-.1,5.9,2.6,5.9,5.9ZM556.9,198.7h-10v-35.2h10v35.2Z"/>
    <path class="cls-2" d="M579.6,148.8c0,3.3-2.7,5.9-5.9,5.9s-5.9-2.6-5.9-5.9,2.7-5.9,5.9-5.9,5.9,2.6,5.9,5.9ZM578.7,217.5h-10v-53.9h10v53.9Z"/>
    <path class="cls-2" d="M625.7,198.7h-9.9v-3.2h-.1c-2.1,2.8-5.9,4.4-9.5,4.4-10.3,0-16.2-9.4-16.2-18.9s5.9-18.6,16-18.6c3.7,0,7.4,1.6,9.8,4.4v-3.3h9.9v35.2ZM616.8,181.1c0-4.7-3.2-9.8-8.4-9.8s-8.3,5.1-8.3,9.8,3.2,9.9,8.3,9.9,8.4-5.2,8.4-9.9Z"/>
    <path class="cls-2" d="M655.3,171.8c-1.4-1.4-3.3-2.4-5.3-2.4-1.6,0-3.3,1.3-3.3,3,0,2.6,3.7,3.3,7.2,4.9,3.7,1.6,7.2,4,7.2,10.1,0,7.8-6.3,12.5-13.7,12.5-4.7,0-9.3-2.1-12.4-5.9l4.6-5.9c1.9,2.1,4.5,4.1,7.4,4.1,2.2,0,4-1.5,4-3.8,0-3.1-3.5-3.8-7-5.3s-7-3.6-7-9.2c0-6.6,4.6-11.4,11.2-11.4,3.7,0,8.5,1.1,11.3,3.7l-4.2,5.6Z"/>
    <path class="cls-2" d="M430.3,283.7h-12.8l-13.1-21.8h-.1v21.8h-10.5v-54h14.3c10.7,0,18.1,4.7,18.1,16.3,0,6.9-3.8,13.8-11,15l15.1,22.7ZM404.3,254.5h1.4c5.8,0,9.9-1.7,9.9-8.3s-4.2-8-9.8-8h-1.4v16.3h-.1Z"/>
    <path class="cls-2" d="M471.4,283.7h-9.9v-3.2h-.1c-2.1,2.8-5.9,4.4-9.5,4.4-10.3,0-16.2-9.4-16.2-18.9s5.9-18.6,16-18.6c3.7,0,7.4,1.6,9.8,4.4v-3.3h9.9v35.2h0ZM462.6,266.1c0-4.7-3.2-9.8-8.4-9.8s-8.3,5.1-8.3,9.8,3.2,9.9,8.3,9.9,8.4-5.2,8.4-9.9Z"/>
    <path class="cls-2" d="M506.2,280.4h-.2c-2.1,2.9-5.8,4.4-9.5,4.4-10.3,0-16.2-9.4-16.2-18.9s5.9-18.6,16-18.6c3.7,0,7.4,1.6,9.6,4.4h.1v-22.1h10v54h-10v-3.2h.2ZM507.2,266.1c0-4.7-3.2-9.8-8.3-9.8s-8.3,5.1-8.3,9.8,3.2,9.9,8.3,9.9,8.3-5.2,8.3-9.9Z"/>
    <path class="cls-2" d="M540.3,233.8c0,3.3-2.6,5.9-5.9,5.9s-5.9-2.7-5.9-5.9,2.7-5.9,5.9-5.9c3.3-.1,5.9,2.7,5.9,5.9ZM539.4,283.7h-10v-35.2h10v35.2Z"/>
    <path class="cls-2" d="M587.5,266.2c0,10.9-7.4,18.7-18.5,18.7s-18.5-7.8-18.5-18.7,7.5-18.8,18.5-18.8c11,0,18.5,7.8,18.5,18.8ZM560.7,266.2c0,4.7,3.2,9.8,8.3,9.8s8.3-5.1,8.3-9.8-3.2-9.9-8.3-9.9c-5.1,0-8.3,5-8.3,9.9Z"/>
  </g>
</svg>