<?xml version="1.0" encoding="utf-8"?>
<!-- Generator: Adobe Illustrator 25.2.3, SVG Export Plug-In . SVG Version: 6.00 Build 0)  -->
<svg version="1.1" id="Layer_1" xmlns="http://www.w3.org/2000/svg" xmlns:xlink="http://www.w3.org/1999/xlink" x="0px" y="0px"
	 viewBox="0 0 19.907 20" style="enable-background:new 0 0 19.907 20;" xml:space="preserve">
<style type="text/css">
	.st0{fill:#0C0D0C;}
</style>
<g id="Group_28" transform="translate(-287.758 -412.485)">
	<path id="Path_2240" class="st0" d="M305.558,412.485h-11.7c-1.2,0-2.1,1-2.1,2.1l0,0v11.7c0,1.2,1,2.1,2.1,2.1l0,0h11.7
		c1.2,0,2.1-1,2.1-2.1l0,0v-11.7C307.758,413.385,306.758,412.485,305.558,412.485z M305.558,426.285h-11.6v-11.6h11.6V426.285z"/>
	<path id="Path_2241" class="st0" d="M289.958,428.085v-11.6h-2.2v13.9c0,1.2,1,2.1,2.1,2.1l0,0h13.9v-2.2h-11.6
		C290.858,430.285,289.958,429.285,289.958,428.085z"/>
	<path id="Path_2242" class="st0" d="M298.258,424.985c1.3,0,2.4-1.1,2.4-2.4v-4.2h2.8v-1.9h-3.8v4.2c-0.4-0.3-0.9-0.5-1.4-0.5
		c-1.3,0-2.3,1.1-2.3,2.4S297.058,424.885,298.258,424.985L298.258,424.985z"/>
</g>
</svg>
