<?xml version="1.0" encoding="utf-8"?>
<!-- Generator: Adobe Illustrator 25.2.3, SVG Export Plug-In . SVG Version: 6.00 Build 0)  -->
<svg version="1.1" id="Layer_1" xmlns="http://www.w3.org/2000/svg" xmlns:xlink="http://www.w3.org/1999/xlink" x="0px" y="0px"
	 viewBox="0 0 19.996 19.34" style="enable-background:new 0 0 19.996 19.34;" xml:space="preserve">
<path d="M19.171,10.004c1.089-1.076,1.101-2.831,0.025-3.92c-0.419-0.425-0.965-0.703-1.555-0.793l-3.393-0.487
	c-0.118-0.024-0.218-0.102-0.27-0.21l-1.532-3.062c-0.67-1.359-2.315-1.919-3.674-1.249C8.229,0.55,7.79,0.989,7.523,1.532
	l-1.5,3.062c-0.052,0.109-0.152,0.187-0.27,0.21L2.36,5.285C0.846,5.513-0.196,6.924,0.031,8.438
	c0.089,0.595,0.37,1.144,0.799,1.566l2.461,2.4c0.087,0.086,0.122,0.213,0.09,0.331l-0.6,3.362
	c-0.245,1.527,0.795,2.963,2.321,3.208c0.135,0.022,0.272,0.033,0.41,0.035c0.45-0.008,0.892-0.123,1.289-0.336l3.033-1.591
	c0.102-0.06,0.229-0.06,0.331,0l3.032,1.591c0.931,0.49,2.061,0.409,2.912-0.21c0.862-0.609,1.294-1.661,1.111-2.7l-0.57-3.362
	c-0.017-0.118,0.015-0.238,0.09-0.331L19.171,10.004z M15.028,10.664c-0.659,0.624-0.953,1.541-0.781,2.432l0.57,3.362
	c0.029,0.139-0.031,0.282-0.15,0.36c-0.112,0.088-0.267,0.1-0.391,0.03l-3.033-1.591c-0.809-0.421-1.773-0.421-2.582,0l-3.033,1.591
	c-0.125,0.069-0.278,0.057-0.391-0.03c-0.119-0.078-0.179-0.221-0.15-0.36l0.57-3.362c0.148-0.889-0.143-1.795-0.781-2.432
	l-2.461-2.4c-0.095-0.094-0.13-0.233-0.09-0.36c0.047-0.13,0.163-0.222,0.3-0.24l3.393-0.481c0.898-0.121,1.676-0.684,2.071-1.5
	l1.532-3.062c0.086-0.183,0.303-0.261,0.485-0.176c0.077,0.036,0.139,0.098,0.176,0.176l1.532,3.062
	c0.395,0.816,1.173,1.379,2.071,1.5l3.393,0.481c0.137,0.018,0.253,0.11,0.3,0.24c0.041,0.127,0.006,0.267-0.09,0.36L15.028,10.664z
	"/>
</svg>
