<?xml version="1.0" encoding="utf-8"?>
<!-- Generator: Adobe Illustrator 27.3.1, SVG Export Plug-In . SVG Version: 6.00 Build 0)  -->
<svg version="1.1" id="Layer_1" xmlns="http://www.w3.org/2000/svg" xmlns:xlink="http://www.w3.org/1999/xlink" x="0px" y="0px"
	 viewBox="0 0 78 78" style="enable-background:new 0 0 78 78;" xml:space="preserve">
<style type="text/css">
	.st0{fill:#66816E;}
	.st1{clip-path:url(#Rectangle_1476_00000176762540570060275900000017186593183571083414_);}
	.st2{fill:#E8B000;}
	.st3{enable-background:new    ;}
	.st4{fill:#FFFFFF;}
</style>
<g>
	<g id="Group_52_00000019679436495805360410000004527334047150443934_" transform="translate(181.261 181.264)">
		
			<rect id="Rectangle_1476_00000031916648215632419020000006233851346565257391_" x="-181.3" y="-181.3" class="st0" width="78" height="78"/>
	</g>
	<g>
		<defs>
			<rect id="Rectangle_1476_00000147913089838665392310000010014613925239904951_" width="78" height="78"/>
		</defs>
		<clipPath id="Rectangle_1476_00000080189448621709326480000004739065970331011209_">
			<use xlink:href="#Rectangle_1476_00000147913089838665392310000010014613925239904951_"  style="overflow:visible;"/>
		</clipPath>
		<g style="clip-path:url(#Rectangle_1476_00000080189448621709326480000004739065970331011209_);">
			<path class="st2" d="M31.9,85.2l-47.8-48.2l31-0.6c11-0.2,20-1.1,27.5-2.7c4.1-0.9,8.7-2.2,12.6-6c0.6-0.6,3.8-3.7,4-7.5
				c0.1-1.9-0.6-4.2-2.6-6.2c-2.5-2.5-5.4-3.1-7.6-2.8c-3.3,0.4-7.4,3.2-9.5,5.2l-16-16.1c7.9-7.7,17-9.9,23.3-9.9
				c8.1,0,16,3.1,23.4,10.6c8.9,9,10.6,17.7,10.6,23.1c0,4.8-1.2,12.8-9,20.5c-7.6,7.5-16.3,9.2-26.7,8.8l-19.4-0.8L45.2,72
				L31.9,85.2z"/>
		</g>
	</g>
	<g class="st3">
		<path class="st4" d="M8.5,40.3l2.8,6.9l2.8-6.9h2.2l-4.4,10.3h-1.2L6.3,40.3H8.5z"/>
		<path class="st4" d="M23.4,48.7c-0.2,0.5-1,2.1-3.3,2.1c-1.1,0-1.9-0.3-2.6-0.9c-0.7-0.7-1.1-1.6-1.1-2.6c0-1.3,0.5-2.2,1-2.6
			c0.8-0.8,1.7-0.9,2.5-0.9c1.4,0,2.2,0.5,2.6,1.1c0.7,0.9,0.8,1.9,0.8,2.6v0.2h-5c0,0.4,0.1,0.8,0.3,1.1c0.2,0.3,0.6,0.6,1.3,0.6
			c0.7,0,1.3-0.3,1.6-0.9L23.4,48.7z M21.7,46.3c-0.2-0.9-0.9-1.3-1.6-1.3c-0.7,0-1.4,0.4-1.6,1.3H21.7z"/>
		<path class="st4" d="M30.4,45.9c-0.4-0.4-0.9-0.6-1.6-0.6c-1.3,0-1.9,0.9-1.9,1.9c0,1.1,0.8,1.9,2,1.9c0.4,0,1-0.1,1.5-0.6v1.8
			c-0.4,0.2-1,0.4-1.7,0.4c-1.1,0-2-0.4-2.6-1c-0.5-0.5-1.1-1.3-1.1-2.6c0-1.2,0.5-2.1,1.2-2.7c0.8-0.7,1.8-0.9,2.4-0.9
			c0.7,0,1.3,0.1,1.8,0.4V45.9z"/>
		<path class="st4" d="M37.3,43.9h1.9v6.7h-1.9v-0.9c-0.7,1-1.6,1.1-2.1,1.1c-2.1,0-3.4-1.6-3.4-3.6c0-2,1.3-3.6,3.3-3.6
			c0.5,0,1.5,0.1,2.2,1.1V43.9z M33.1,41h5.6v1.2h-5.6V41z M33.8,47.2c0,1.1,0.8,1.9,1.9,1.9s1.9-0.8,1.9-1.9s-0.8-1.9-1.9-1.9
			S33.8,46.2,33.8,47.2z"/>
		<path class="st4" d="M45.1,45.5C44.6,45.1,44.2,45,44,45c-0.4,0-0.7,0.2-0.7,0.5c0,0.2,0.1,0.4,0.6,0.6l0.5,0.1
			c0.5,0.2,1.3,0.4,1.7,1c0.2,0.3,0.3,0.7,0.3,1.1c0,0.6-0.2,1.2-0.7,1.7s-1.2,0.7-2,0.7c-1.4,0-2.2-0.7-2.6-1.1l1-1.1
			c0.4,0.4,0.9,0.8,1.5,0.8c0.5,0,0.9-0.3,0.9-0.7c0-0.4-0.3-0.6-0.6-0.7l-0.4-0.2c-0.5-0.2-1-0.4-1.4-0.8c-0.3-0.3-0.5-0.7-0.5-1.3
			c0-0.7,0.3-1.2,0.7-1.5c0.5-0.4,1.2-0.5,1.8-0.5c0.5,0,1.3,0.1,2.1,0.7L45.1,45.5z"/>
		<path class="st4" d="M9,69.1H7.1V58.9H9v0.9c0.3-0.4,0.9-1.1,2.2-1.1c0.6,0,1.5,0.1,2.3,0.9c0.5,0.5,1,1.3,1,2.7
			c0,1.5-0.7,2.3-1.1,2.7c-0.5,0.5-1.3,0.9-2.3,0.9c-0.5,0-1.4-0.1-2.2-1.1V69.1z M9.5,60.8c-0.4,0.4-0.6,0.8-0.6,1.4
			s0.2,1.1,0.6,1.5c0.2,0.2,0.7,0.5,1.2,0.5c0.6,0,1-0.2,1.3-0.5c0.4-0.4,0.6-0.9,0.6-1.4s-0.2-1.1-0.6-1.4
			c-0.3-0.3-0.8-0.5-1.3-0.5C10.2,60.3,9.8,60.5,9.5,60.8z"/>
		<path class="st4" d="M18.3,54.3v11.3h-1.9V54.3H18.3z"/>
		<path class="st4" d="M25.6,58.9h1.9v6.7h-1.9v-0.9c-0.7,1-1.6,1.1-2.1,1.1c-2.1,0-3.4-1.6-3.4-3.6c0-2,1.3-3.6,3.3-3.6
			c0.5,0,1.5,0.1,2.2,1.1V58.9z M22,62.2c0,1.1,0.8,1.9,1.9,1.9c1.1,0,1.9-0.8,1.9-1.9s-0.8-1.9-1.9-1.9C22.8,60.3,22,61.2,22,62.2z
			"/>
		<path class="st4" d="M31.5,60.5v5.1h-1.9v-5.1h-0.7v-1.6h0.7v-2.3h1.9v2.3h1.3v1.6H31.5z"/>
		<path class="st4" d="M40.8,63.7c-0.2,0.5-1,2.1-3.3,2.1c-1.1,0-1.9-0.3-2.6-0.9c-0.7-0.7-1.1-1.6-1.1-2.6c0-1.3,0.5-2.2,1-2.6
			c0.8-0.8,1.7-0.9,2.5-0.9c1.4,0,2.2,0.5,2.6,1.1c0.7,0.9,0.8,1.9,0.8,2.6v0.2h-5c0,0.4,0.1,0.8,0.3,1.1c0.2,0.3,0.6,0.6,1.3,0.6
			c0.7,0,1.3-0.3,1.6-0.9L40.8,63.7z M39.1,61.3c-0.2-0.9-0.9-1.3-1.6-1.3c-0.7,0-1.4,0.4-1.6,1.3H39.1z"/>
		<path class="st4" d="M46.4,60.5c-0.4-0.4-0.9-0.4-1.1-0.4c-0.4,0-0.7,0.2-0.7,0.5c0,0.2,0.1,0.4,0.6,0.6l0.5,0.1
			c0.5,0.2,1.3,0.4,1.7,1c0.2,0.3,0.3,0.7,0.3,1.1c0,0.6-0.2,1.2-0.7,1.7s-1.2,0.7-2,0.7c-1.4,0-2.2-0.7-2.6-1.1l1-1.1
			c0.4,0.4,0.9,0.8,1.5,0.8c0.5,0,0.9-0.3,0.9-0.7c0-0.4-0.3-0.6-0.6-0.7l-0.4-0.2c-0.5-0.2-1-0.4-1.4-0.8c-0.3-0.3-0.5-0.7-0.5-1.3
			c0-0.7,0.3-1.2,0.7-1.5c0.5-0.4,1.2-0.5,1.8-0.5c0.5,0,1.3,0.1,2.1,0.7L46.4,60.5z"/>
	</g>
</g>
</svg>
