<?xml version="1.0" encoding="utf-8"?>
<!-- Generator: Adobe Illustrator 25.2.3, SVG Export Plug-In . SVG Version: 6.00 Build 0)  -->
<svg version="1.1" id="Layer_1" xmlns="http://www.w3.org/2000/svg" xmlns:xlink="http://www.w3.org/1999/xlink" x="0px" y="0px"
	 viewBox="0 0 24 24" style="enable-background:new 0 0 24 24;" xml:space="preserve">
<style type="text/css">
	.st0{fill:#CACACA;}
	.st1{fill:#FFFFFF;}
</style>
<g transform="translate(-78 -597)">
	<circle class="st0" cx="90" cy="609" r="12"/>
</g>
<path class="st1" d="M14.47,13.644c-0.254,0.006-0.499,0.088-0.706,0.235l-3.083-1.759c0.005-0.04,0.013-0.079,0.023-0.118
	c0-0.023,0-0.094-0.023-0.118l3.082-1.764c0.205,0.151,0.452,0.233,0.706,0.235c0.649,0,1.176-0.527,1.176-1.176
	c0-0.649-0.527-1.176-1.176-1.176c-0.649,0-1.176,0.527-1.176,1.176c-0.004,0.041,0.004,0.082,0.023,0.118l-3.081,1.765
	c-0.52-0.389-1.257-0.282-1.646,0.238c-0.389,0.52-0.282,1.257,0.238,1.646c0.203,0.152,0.449,0.234,0.702,0.234
	c0.254-0.006,0.499-0.088,0.706-0.235l3.082,1.764c0,0.047-0.023,0.071-0.023,0.118c0.004,0.649,0.534,1.173,1.183,1.169
	c0.649-0.004,1.173-0.534,1.169-1.183C15.642,14.167,15.116,13.645,14.47,13.644z"/>
</svg>
