<?xml version="1.0" encoding="utf-8"?>
<!-- Generator: Adobe Illustrator 25.2.3, SVG Export Plug-In . SVG Version: 6.00 Build 0)  -->
<svg version="1.1" id="Layer_1" xmlns="http://www.w3.org/2000/svg" xmlns:xlink="http://www.w3.org/1999/xlink" x="0px" y="0px"
	 viewBox="0 0 24 24" style="enable-background:new 0 0 24 24;" xml:space="preserve">
<style type="text/css">
	.st0{fill:#FFFFFF;}
</style>
<g transform="translate(-78 -597)">
	<circle class="st0" cx="90" cy="609" r="12"/>
	<g transform="translate(-10.8 -15)">
		<g transform="translate(71.992 601.093)">
			<path d="M28.9,25.816c-0.304-0.001-0.55-0.247-0.551-0.551v-6.807c-0.018-0.304,0.213-0.565,0.517-0.583s0.565,0.213,0.583,0.517
				c0.001,0.022,0.001,0.044,0,0.066v6.807C29.448,25.568,29.203,25.814,28.9,25.816z"/>
			<path d="M28.9,26.153c-0.304,0-0.551-0.246-0.552-0.55c0-0.147,0.058-0.287,0.162-0.391l2.923-2.923
				c0.215-0.215,0.564-0.216,0.779,0c0.215,0.215,0.216,0.564,0,0.779l0,0l-2.926,2.924c-0.103,0.103-0.244,0.161-0.39,0.161
				C28.896,26.153,28.9,26.153,28.9,26.153z"/>
			<path d="M28.9,26.153c-0.146,0-0.287-0.058-0.39-0.161l-2.923-2.923c-0.21-0.22-0.201-0.569,0.019-0.779
				c0.213-0.203,0.547-0.203,0.76,0l2.924,2.922l0,0c0.215,0.215,0.216,0.564,0.001,0.779C29.187,26.095,29.047,26.153,28.9,26.153z
				"/>
			<path d="M32.242,27.904h-6.684c-0.304-0.018-0.535-0.279-0.517-0.583c0.017-0.278,0.239-0.5,0.517-0.517h6.684
				c0.304,0.018,0.535,0.279,0.517,0.583C32.742,27.665,32.52,27.887,32.242,27.904z"/>
		</g>
	</g>
</g>
</svg>
