<?xml version="1.0" encoding="utf-8"?>
<!-- Generator: Adobe Illustrator 25.2.3, SVG Export Plug-In . SVG Version: 6.00 Build 0)  -->
<svg version="1.1" id="Layer_1" xmlns="http://www.w3.org/2000/svg" xmlns:xlink="http://www.w3.org/1999/xlink" x="0px" y="0px"
	 viewBox="0 0 78 78" style="enable-background:new 0 0 78 78;" xml:space="preserve">
<style type="text/css">
	.st0{fill:#5834AA;}
	.st1{opacity:0.72;clip-path:url(#SVGID_2_);}
	.st2{fill:#9464FA;}
	.st3{enable-background:new    ;}
	.st4{fill:#FFFFFF;}
</style>
<g>
	<g id="Group_52_00000058556607195890914560000006073386352101044660_" transform="translate(181.261 181.264)">
		
			<rect id="Rectangle_1476_00000092439220982419341530000006636019992031784337_" x="-181.2" y="-181.264" class="st0" width="77.939" height="77.964"/>
	</g>
	<g>
		<g>
			<defs>
				<rect id="SVGID_1_" y="0.036" width="77.939" height="77.964"/>
			</defs>
			<clipPath id="SVGID_2_">
				<use xlink:href="#SVGID_1_"  style="overflow:visible;"/>
			</clipPath>
			<g class="st1">
				<path class="st2" d="M78.139,37.719l-21.683-21.89l-8.094,5.797c2.698,1.999,4.696,3.798,5.496,4.698
					C62.251,34.72,64.25,43.216,64.15,49.213c0,5.697-1.998,13.394-9.293,20.59c-7.594,7.497-15.688,9.596-21.883,9.596
					c-11.891,0.1-20.584-6.597-26.679-12.694C-3.098,57.21-7.194,48.114-9.093,39.818L8.693,27.024
					c0.3,6.297,1.799,11.095,2.398,12.694c1.499,4.198,4.097,8.496,7.194,11.595c3.297,3.298,7.394,5.198,11.291,5.198
					c2.898-0.1,6.195-1.299,8.893-3.898c3.297-3.298,3.997-7.197,3.797-9.795c-0.3-6.397-6.095-12.394-8.094-14.493
					c-4.397-4.498-9.093-7.297-14.189-8.996L59.454-8.96l32.575,32.885L78.139,37.719z"/>
			</g>
		</g>
	</g>
	<g class="st3">
		<path class="st4" d="M10.492,55.211c1.199,0,1.998,0.1,2.698,0.8c0.799,0.7,1.099,1.799,1.099,2.499c0,0.4-0.1,1.499-0.899,2.299
			c-0.6,0.6-1.399,0.9-2.598,0.9H9.493v3.798H7.494V55.211H10.492z M9.493,60.008h0.799c0.4,0,0.899,0,1.299-0.3
			c0.4-0.3,0.6-0.8,0.6-1.199c0-0.6-0.3-1-0.6-1.199c-0.4-0.3-0.999-0.3-1.399-0.3H9.493V60.008z"/>
		<path class="st4" d="M16.787,54.911c0.6,0,1.099,0.5,1.099,1.099c0,0.6-0.5,1.099-1.099,1.099c-0.6,0-1.099-0.5-1.099-1.099
			C15.688,55.41,16.187,54.911,16.787,54.911z M17.686,58.909v6.697h-1.899v-6.697C15.788,58.909,17.686,58.909,17.686,58.909z"/>
		<path class="st4" d="M26.479,63.707c-0.2,0.5-0.999,2.099-3.297,2.099c-1.099,0-1.899-0.3-2.598-0.9
			c-0.699-0.7-1.099-1.599-1.099-2.599c0-1.299,0.5-2.199,0.999-2.599c0.799-0.8,1.699-0.9,2.498-0.9c1.399,0,2.198,0.5,2.598,1.099
			c0.699,0.9,0.799,1.899,0.799,2.599v0.2h-4.996c0,0.4,0.1,0.8,0.3,1.099c0.2,0.3,0.6,0.6,1.299,0.6c0.699,0,1.299-0.3,1.599-0.9
			L26.479,63.707z M24.781,61.308c-0.2-0.9-0.899-1.299-1.599-1.299c-0.699,0-1.399,0.4-1.599,1.299H24.781z"/>
		<path class="st4" d="M33.374,60.908c-0.4-0.4-0.899-0.6-1.599-0.6c-1.299,0-1.899,0.9-1.899,1.899
			c0,1.099,0.799,1.899,1.998,1.899c0.4,0,0.999-0.1,1.499-0.6v1.799c-0.4,0.2-0.999,0.4-1.699,0.4c-1.099,0-1.998-0.4-2.598-1
			c-0.5-0.5-1.099-1.299-1.099-2.599c0-1.199,0.5-2.099,1.199-2.699c0.799-0.7,1.799-0.9,2.398-0.9c0.699,0,1.299,0.1,1.799,0.4
			C33.374,58.909,33.374,60.908,33.374,60.908z"/>
		<path class="st4" d="M36.172,54.911c0.6,0,1.099,0.5,1.099,1.099c0,0.6-0.5,1.099-1.099,1.099c-0.6,0-1.099-0.5-1.099-1.099
			C35.073,55.41,35.572,54.911,36.172,54.911z M37.071,58.909v6.697h-1.899v-6.697C35.172,58.909,37.071,58.909,37.071,58.909z"/>
		<path class="st4" d="M43.266,54.311h1.899v5.497c0.4-0.5,0.999-1.099,2.098-1.099c0.6,0,1.499,0.2,1.998,0.8
			c0.5,0.6,0.5,1.199,0.5,1.899v4.198h-1.899v-3.698c0-0.4,0-1-0.4-1.299c-0.3-0.3-0.699-0.3-0.899-0.3c-0.5,0-0.899,0.2-1.199,0.6
			c-0.3,0.4-0.3,0.9-0.3,1.299v3.398h-1.899V54.311H43.266z"/>
		<path class="st4" d="M52.859,54.911c0.6,0,1.099,0.5,1.099,1.099c0,0.6-0.5,1.099-1.099,1.099s-1.099-0.5-1.099-1.099
			C51.76,55.41,52.259,54.911,52.859,54.911z M53.858,58.909v6.697h-1.899v-6.697C51.959,58.909,53.858,58.909,53.858,58.909z"/>
		<path class="st4" d="M57.855,60.508v5.098h-1.899v-5.098h-0.699v-1.599h0.699V56.61h1.899v2.299h1.299v1.599H57.855z"/>
		<path class="st4" d="M61.552,54.911c0.6,0,1.099,0.5,1.099,1.099c0,0.6-0.5,1.099-1.099,1.099s-1.099-0.5-1.099-1.099
			C60.453,55.41,60.952,54.911,61.552,54.911z M62.451,58.909v6.697h-1.899v-6.697C60.553,58.909,62.451,58.909,62.451,58.909z"/>
	</g>
</g>
</svg>
