<?xml version="1.0" encoding="utf-8"?>
<!-- Generator: Adobe Illustrator 25.2.3, SVG Export Plug-In . SVG Version: 6.00 Build 0)  -->
<svg version="1.1" id="Layer_1" xmlns="http://www.w3.org/2000/svg" xmlns:xlink="http://www.w3.org/1999/xlink" x="0px" y="0px"
	 viewBox="0 0 20 20" style="enable-background:new 0 0 20 20;" xml:space="preserve">
<style type="text/css">
	.st0{fill:#CCCCCC;}
</style>
<g>
	<g>
		<path class="st0" d="M12.087,13.583l-2.434,2.434c-0.811,0.811-1.758,1.082-2.839,1.082s-2.028-0.406-2.839-1.217
			c-0.811-0.811-1.082-1.758-1.082-2.839s0.406-2.028,1.217-2.839l2.434-2.434L5.191,6.417L2.758,8.851
			C1.541,9.932,1,11.555,1,13.042s0.541,2.975,1.758,4.191c1.082,1.217,2.704,1.758,4.191,1.758s2.975-0.541,4.191-1.758
			l2.434-2.434L12.087,13.583z"/>
		<path class="st0" d="M17.36,2.766c-1.082-1.217-2.704-1.758-4.191-1.758s-2.975,0.541-4.191,1.758L6.544,5.2l1.352,1.352
			l2.434-2.434c0.811-0.811,1.758-1.082,2.839-1.082s2.028,0.406,2.839,1.217c0.811,0.811,1.082,1.758,1.082,2.839
			s-0.406,2.028-1.217,2.839l-2.434,2.434l1.352,1.352l2.434-2.434c1.217-1.082,1.758-2.704,1.758-4.191
			C19.118,5.335,18.442,3.848,17.36,2.766z"/>
	</g>
	<path class="st0" d="M11.141,7.228L7.22,11.149c-0.406,0.406-0.406,1.082,0,1.487c0.406,0.406,1.082,0.406,1.487,0l3.921-3.921
		c0.406-0.406,0.406-1.082,0-1.487C12.222,6.958,11.546,6.823,11.141,7.228"/>
</g>
</svg>
