<?xml version="1.0" encoding="utf-8"?>
<!-- Generator: Adobe Illustrator 25.2.3, SVG Export Plug-In . SVG Version: 6.00 Build 0)  -->
<svg version="1.1" id="Layer_1" xmlns="http://www.w3.org/2000/svg" xmlns:xlink="http://www.w3.org/1999/xlink" x="0px" y="0px"
	 viewBox="0 0 20 20" style="enable-background:new 0 0 20 20;" xml:space="preserve">
<style type="text/css">
	.st0{fill:#CACACA;}
</style>
<g>
	<g>
		<path class="st0" d="M13.85,18.95h-7.7c-2.8,0-5.1-2.3-5.1-5.1v-7.7c0-2.8,2.3-5.1,5.1-5.1h7.7c2.8,0,5.1,2.3,5.1,5.1v7.7
			C18.95,16.65,16.65,18.95,13.85,18.95z M6.05,2.55c-2,0-3.6,1.6-3.6,3.6v7.7c0,2,1.6,3.6,3.6,3.6h7.7c2,0,3.6-1.6,3.6-3.6v-7.7
			c0-2-1.6-3.6-3.6-3.6H6.05z"/>
	</g>
	<g>
		<path class="st0" d="M9.95,14.65c-2.5,0-4.6-2.1-4.6-4.6s2.1-4.6,4.6-4.6s4.6,2.1,4.6,4.6S12.45,14.65,9.95,14.65z M9.95,6.95
			c-1.7,0-3.1,1.4-3.1,3.1s1.4,3.1,3.1,3.1s3.1-1.4,3.1-3.1S11.65,6.95,9.95,6.95z"/>
	</g>
	<g>
		<path class="st0" d="M15.85,5.15c0,0.6-0.5,1.1-1.1,1.1s-1.1-0.5-1.1-1.1s0.5-1.1,1.1-1.1C15.35,4.05,15.85,4.55,15.85,5.15z"/>
	</g>
</g>
</svg>
