<?xml version="1.0" encoding="utf-8"?>
<!-- Generator: Adobe Illustrator 25.2.3, SVG Export Plug-In . SVG Version: 6.00 Build 0)  -->
<svg version="1.1" id="Layer_1" xmlns="http://www.w3.org/2000/svg" xmlns:xlink="http://www.w3.org/1999/xlink" x="0px" y="0px"
	 viewBox="0 0 20 20" style="enable-background:new 0 0 20 20;" xml:space="preserve">
<style type="text/css">
	.st0{fill:#CACACA;}
</style>
<path class="st0" d="M16.2,1.13H3.8c-1.6,0-2.8,1.3-2.8,2.8v8.2c0,1.6,1.3,2.8,2.8,2.8h0.1v3.4c0,0.5,0.5,0.7,0.9,0.4l4.8-3.9h6.6
	c1.6,0,2.8-1.3,2.8-2.8v-8.2C19,2.43,17.7,1.13,16.2,1.13z M5.4,8.83c-0.6,0-1-0.5-1-1s0.5-1,1-1c0.6,0,1,0.5,1,1S6,8.83,5.4,8.83z
	 M10,8.83c-0.6,0-1-0.5-1-1s0.5-1,1-1s1,0.5,1,1S10.5,8.83,10,8.83z M14.5,8.83c-0.6,0-1-0.5-1-1s0.5-1,1-1c0.6,0,1,0.5,1,1
	S15.1,8.83,14.5,8.83z"/>
</svg>
