<?xml version="1.0" encoding="utf-8"?>
<!-- Generator: Adobe Illustrator 25.2.3, SVG Export Plug-In . SVG Version: 6.00 Build 0)  -->
<svg version="1.1" id="Layer_1" xmlns="http://www.w3.org/2000/svg" xmlns:xlink="http://www.w3.org/1999/xlink" x="0px" y="0px"
	 viewBox="0 0 78 78" style="enable-background:new 0 0 78 78;" xml:space="preserve">
<style type="text/css">
	.st0{fill:#486FA9;}
	.st1{clip-path:url(#SVGID_2_);}
	.st2{fill:#CFB000;}
	.st3{enable-background:new    ;}
	.st4{fill:#FFFFFF;}
</style>
<g>
	<g id="Group_52_00000147902429126109842550000009599442851378912416_" transform="translate(181.261 181.264)">
		
			<rect id="Rectangle_1476_00000161593338209809852950000010256192256467422604_" x="-181.2" y="-181.264" class="st0" width="77.939" height="77.964"/>
	</g>
	<g>
		<g>
			<defs>
				<rect id="SVGID_1_" y="0.036" width="77.939" height="77.964"/>
			</defs>
			<clipPath id="SVGID_2_">
				<use xlink:href="#SVGID_1_"  style="overflow:visible;"/>
			</clipPath>
			<g class="st1">
				<path class="st2" d="M78.039,37.719l-21.683-21.89l-8.094,5.797c2.698,1.999,4.696,3.798,5.496,4.698
					C62.151,34.72,64.15,43.216,64.05,49.213c0,5.697-1.998,13.394-9.293,20.59c-7.594,7.497-15.688,9.596-21.883,9.596
					c-11.891,0.1-20.584-6.597-26.679-12.694C-3.098,57.21-7.194,48.114-9.093,39.818L8.693,27.024
					c0.3,6.297,1.799,11.095,2.398,12.694c1.499,4.198,4.097,8.496,7.194,11.595c3.297,3.298,7.394,5.198,11.291,5.198
					c2.898-0.1,6.195-1.299,8.893-3.898c3.297-3.298,3.997-7.197,3.797-9.795c-0.3-6.397-6.095-12.394-8.094-14.493
					c-4.397-4.498-9.093-7.297-14.189-8.996L59.454-8.96l32.575,32.885L78.039,37.719z"/>
			</g>
		</g>
	</g>
	<g class="st3">
		<path class="st4" d="M9.393,40.317v6.497c0,0.8,0.3,1.299,0.5,1.499c0.3,0.4,0.799,0.7,1.599,0.7c0.799,0,1.299-0.4,1.599-0.7
			c0.2-0.3,0.5-0.7,0.5-1.499v-6.497h1.998v6.297c0,1-0.2,1.999-0.799,2.799c-0.699,1-1.998,1.499-3.397,1.499
			s-2.598-0.5-3.397-1.499c-0.6-0.8-0.799-1.799-0.799-2.799v-6.297H9.393z"/>
		<path class="st4" d="M20.084,39.318v6.997l2.498-2.399h2.498l-3.198,2.899l3.397,3.798h-2.498l-2.498-2.899l-0.2,0.2v2.699h-1.899
			V39.318H20.084z"/>
		<path class="st4" d="M26.479,43.916h1.899v1c0.3-0.6,0.699-0.9,0.799-0.9c0.3-0.2,0.699-0.3,1.099-0.3c0.3,0,0.6,0.1,0.799,0.2
			l-0.2,1.699c-0.2-0.2-0.5-0.2-0.899-0.2c-0.4,0-0.899,0.1-1.299,0.5c-0.4,0.4-0.4,1-0.4,1.499v3.199h-1.899v-6.697H26.479z"/>
		<path class="st4" d="M37.471,43.916h1.899v6.697h-1.899v-0.9c-0.699,1-1.599,1.099-2.098,1.099c-2.098,0-3.397-1.599-3.397-3.598
			s1.299-3.598,3.297-3.598c0.5,0,1.499,0.1,2.198,1.099V43.916z M33.874,47.214c0,1.099,0.799,1.899,1.899,1.899
			c1.099,0,1.899-0.8,1.899-1.899s-0.799-1.899-1.899-1.899C34.673,45.315,33.874,46.215,33.874,47.214z"/>
		<path class="st4" d="M42.467,39.918c0.6,0,1.099,0.5,1.099,1.099s-0.5,1.099-1.099,1.099s-1.099-0.5-1.099-1.099
			S41.867,39.918,42.467,39.918z M43.366,43.916v6.697h-1.899v-6.697H43.366z"/>
		<path class="st4" d="M45.564,43.916h1.899v0.9c0.4-0.5,0.999-1.099,2.098-1.099c0.6,0,1.499,0.2,1.998,0.8
			c0.5,0.6,0.5,1.199,0.5,1.899v4.198h-1.899v-3.698c0-0.4,0-1-0.4-1.299c-0.3-0.3-0.699-0.3-0.899-0.3c-0.5,0-0.899,0.2-1.199,0.6
			c-0.3,0.4-0.3,0.9-0.3,1.299v3.398h-1.899v-6.697H45.564z"/>
		<path class="st4" d="M59.354,43.916h1.899v6.697h-1.899v-0.9c-0.699,1-1.599,1.099-2.098,1.099c-2.098,0-3.397-1.599-3.397-3.598
			s1.299-3.598,3.297-3.598c0.5,0,1.499,0.1,2.198,1.099V43.916z M55.856,47.214c0,1.099,0.799,1.899,1.899,1.899
			c1.099,0,1.899-0.8,1.899-1.899s-0.799-1.899-1.899-1.899C56.656,45.315,55.856,46.215,55.856,47.214z"/>
		<path class="st4" d="M67.147,45.515c-0.4-0.4-0.899-0.4-1.099-0.4c-0.4,0-0.699,0.2-0.699,0.5c0,0.2,0.1,0.4,0.6,0.6l0.5,0.1
			c0.5,0.2,1.299,0.4,1.699,1c0.2,0.3,0.3,0.7,0.3,1.099c0,0.6-0.2,1.199-0.699,1.699c-0.5,0.5-1.199,0.7-1.998,0.7
			c-1.399,0-2.198-0.7-2.598-1.099l0.999-1.099c0.4,0.4,0.899,0.8,1.499,0.8c0.5,0,0.899-0.3,0.899-0.7s-0.3-0.6-0.6-0.7l-0.4-0.2
			c-0.5-0.2-0.999-0.4-1.399-0.8c-0.3-0.3-0.5-0.7-0.5-1.299c0-0.7,0.3-1.199,0.699-1.499c0.5-0.4,1.199-0.5,1.799-0.5
			c0.5,0,1.299,0.1,2.098,0.7L67.147,45.515z"/>
		<path class="st4" d="M7.194,58.909h1.899v0.8c0.699-0.9,1.599-1,1.998-1c1.399,0,1.998,0.9,2.098,1.199
			c0.3-0.5,0.999-1.199,2.198-1.199c0.999,0,1.499,0.5,1.799,0.8c0.4,0.6,0.5,1.099,0.5,1.899v4.198h-1.899v-3.698
			c0-0.8-0.2-1.099-0.3-1.299c-0.2-0.3-0.6-0.3-0.799-0.3c-0.5,0-0.799,0.2-0.999,0.6s-0.3,0.9-0.3,1.299v3.398h-1.899v-3.698
			c0-0.8-0.2-1.099-0.3-1.299c-0.2-0.3-0.6-0.3-0.799-0.3c-0.5,0-0.799,0.2-0.999,0.6s-0.3,0.9-0.3,1.299v3.398H7.194V58.909z"/>
		<path class="st4" d="M21.683,58.909v3.798c0,0.4,0,0.8,0.4,1.199c0.2,0.2,0.6,0.3,0.999,0.3c0.4,0,0.699-0.1,0.999-0.3
			c0.4-0.3,0.4-0.8,0.4-1.199v-3.798h1.899v4.098c0,0.6-0.1,1.399-0.799,2.099c-0.6,0.5-1.599,0.8-2.398,0.8
			c-0.799,0-1.799-0.2-2.398-0.8c-0.699-0.7-0.799-1.499-0.799-2.099v-4.098H21.683z M20.184,56.01h5.696v1.199h-5.596V56.01H20.184
			z"/>
		<path class="st4" d="M31.076,64.006h3.497v1.599h-6.895l3.797-5.098h-3.198v-1.599h6.595L31.076,64.006z"/>
		<path class="st4" d="M37.271,54.911c0.6,0,1.099,0.5,1.099,1.099c0,0.6-0.5,1.099-1.099,1.099c-0.6,0-1.099-0.5-1.099-1.099
			C36.172,55.41,36.671,54.911,37.271,54.911z M38.27,58.909v6.697h-1.899v-6.697C36.372,58.909,38.27,58.909,38.27,58.909z"/>
		<path class="st4" d="M42.267,54.311v6.997l2.498-2.399h2.498l-3.098,2.899l3.397,3.798h-2.498l-2.498-2.899l-0.2,0.2v2.699h-1.899
			V54.311H42.267z"/>
		<path class="st4" d="M53.858,58.909h1.899v6.697h-1.899v-0.9c-0.699,1-1.599,1.099-2.098,1.099c-2.098,0-3.397-1.599-3.397-3.598
			c0-1.999,1.299-3.598,3.297-3.598c0.5,0,1.499,0.1,2.198,1.099V58.909z M50.361,62.207c0,1.099,0.799,1.899,1.899,1.899
			s1.899-0.8,1.899-1.899s-0.799-1.899-1.899-1.899C51.06,60.308,50.361,61.208,50.361,62.207z"/>
	</g>
</g>
</svg>
