<?xml version="1.0" encoding="utf-8"?>
<!-- Generator: Adobe Illustrator 25.2.3, SVG Export Plug-In . SVG Version: 6.00 Build 0)  -->
<svg version="1.1" id="Layer_1" xmlns="http://www.w3.org/2000/svg" xmlns:xlink="http://www.w3.org/1999/xlink" x="0px" y="0px"
	 viewBox="0 0 19.125 22" style="enable-background:new 0 0 19.125 22;" xml:space="preserve">
<style type="text/css">
	.st0{fill:#FFFFFF;}
</style>
<g>
	<path class="st0" d="M14.749,10.096c-0.024-2.407,1.963-3.561,2.051-3.619c-1.116-1.632-2.856-1.856-3.475-1.882
		c-1.479-0.15-2.888,0.871-3.638,0.871c-0.749,0-1.908-0.849-3.135-0.828c-1.613,0.025-3.1,0.939-3.931,2.383
		c-1.675,2.907-0.428,7.215,1.205,9.574c0.798,1.153,1.75,2.451,2.999,2.403c1.204-0.048,1.658-0.779,3.113-0.779
		s1.864,0.779,3.137,0.754c1.295-0.024,2.115-1.175,2.907-2.333c0.916-1.34,1.294-2.637,1.316-2.703
		C17.27,13.926,14.775,12.97,14.749,10.096z"/>
	<path class="st0" d="M12.356,3.034C13.019,2.229,13.467,1.112,13.345,0c-0.956,0.039-2.113,0.635-2.799,1.439
		c-0.615,0.713-1.152,1.848-1.008,2.94C10.604,4.461,11.692,3.836,12.356,3.034z"/>
</g>
</svg>
