<?xml version="1.0" encoding="utf-8"?>
<!-- Generator: Adobe Illustrator 25.2.3, SVG Export Plug-In . SVG Version: 6.00 Build 0)  -->
<svg version="1.1" id="Layer_1" xmlns="http://www.w3.org/2000/svg" xmlns:xlink="http://www.w3.org/1999/xlink" x="0px" y="0px"
	 viewBox="0 0 21.185 15.696" style="enable-background:new 0 0 21.185 15.696;" xml:space="preserve">
<g transform="translate(-2.5 -14.822)">
	<path d="M20.587,15.173c-0.48-0.48-1.26-0.48-1.74,0c-0.48,0.48-0.48,1.26,0,1.74c3.178,3.173,3.182,8.321,0.009,11.499
		c-0.003,0.003-0.006,0.006-0.009,0.009c-0.469,0.485-0.469,1.255,0,1.74c0.482,0.476,1.257,0.476,1.739,0
		c4.132-4.141,4.132-10.846,0-14.987L20.587,15.173z"/>
	<path d="M4.953,22.667c-0.007-2.16,0.852-4.233,2.386-5.754c0.48-0.48,0.48-1.26,0-1.74s-1.26-0.48-1.74,0
		c-4.132,4.132-4.132,10.832,0,14.964c0.008,0.008,0.016,0.015,0.023,0.023c0.482,0.476,1.257,0.476,1.739,0
		c0.474-0.487,0.464-1.266-0.023-1.74C5.81,26.895,4.951,24.825,4.953,22.667L4.953,22.667z"/>
	<path d="M17.509,18.273c-0.474-0.487-1.253-0.497-1.74-0.023c-0.487,0.474-0.497,1.253-0.022,1.74
		c1.478,1.466,1.488,3.852,0.022,5.33c-0.007,0.007-0.015,0.015-0.022,0.022c-0.474,0.487-0.464,1.266,0.023,1.74
		c0.482,0.476,1.257,0.476,1.739,0c2.433-2.424,2.439-6.361,0.015-8.794C17.519,18.283,17.514,18.278,17.509,18.273z"/>
	<path d="M10.417,18.251c-0.485-0.469-1.255-0.469-1.74,0c-2.438,2.439-2.438,6.393,0,8.832c0.482,0.476,1.257,0.476,1.739,0
		c0.469-0.485,0.469-1.255,0-1.74c-1.478-1.466-1.488-3.852-0.022-5.33c0.007-0.007,0.015-0.015,0.022-0.022
		c0.48-0.466,0.492-1.233,0.026-1.714C10.434,18.268,10.425,18.26,10.417,18.251L10.417,18.251z"/>
	<path d="M14.966,22.667c-0.001,1.034-0.841,1.872-1.875,1.871c-1.034-0.001-1.872-0.841-1.871-1.875
		c0.001-1.034,0.839-1.871,1.873-1.871c1.034-0.001,1.872,0.837,1.873,1.871c0,0.001,0,0.001,0,0.002"/>
</g>
</svg>
