<?xml version="1.0" encoding="utf-8"?>
<!-- Generator: Adobe Illustrator 25.2.3, SVG Export Plug-In . SVG Version: 6.00 Build 0)  -->
<svg version="1.1" id="Layer_1" xmlns="http://www.w3.org/2000/svg" xmlns:xlink="http://www.w3.org/1999/xlink" x="0px" y="0px"
	 viewBox="0 0 24 24" style="enable-background:new 0 0 24 24;" xml:space="preserve">
<style type="text/css">
	.st0{fill:none;}
	.st1{fill:#FFFFFF;stroke:#FFFFFF;}
	.st2{fill:#E00008;}
</style>
<g id="Group_447" transform="translate(-78 -597)">
	<g id="Ellipse_46" transform="translate(78 597)">
		<circle class="st0" cx="12" cy="12" r="12"/>
		<circle class="st1" cx="12" cy="12" r="11.5"/>
	</g>
	<g id="Group_424" transform="translate(-726.711 -616.735)">
		<path id="Path_2393" class="st2" d="M815.4,1230.2c-0.4,0-0.7-0.3-0.7-0.7c0-0.2,0.1-0.3,0.2-0.5l6.2-7.6c0.3-0.3,0.7-0.3,0.9,0
			s0.3,0.7,0,0.9l0,0l-6.2,7.6C815.7,1230.2,815.6,1230.2,815.4,1230.2L815.4,1230.2z"/>
		<path id="Path_2394" class="st2" d="M815.4,1230.2c-0.2,0-0.3-0.1-0.5-0.2l-3.5-3.5c-0.3-0.3-0.3-0.7,0-0.9c0.3-0.3,0.7-0.3,0.9,0
			l0,0l0,0l3.5,3.5l0,0c0.3,0.3,0.3,0.7,0,0.9C815.7,1230.1,815.6,1230.2,815.4,1230.2L815.4,1230.2z"/>
	</g>
</g>
</svg>
