<?xml version="1.0" encoding="utf-8"?>
<!-- Generator: Adobe Illustrator 24.1.2, SVG Export Plug-In . SVG Version: 6.00 Build 0)  -->
<svg version="1.1" id="Layer_1" xmlns="http://www.w3.org/2000/svg" xmlns:xlink="http://www.w3.org/1999/xlink" x="0px" y="0px"
	 viewBox="0 0 16.3 13.2" style="enable-background:new 0 0 16.3 13.2;" xml:space="preserve">
<style type="text/css">
	.st0{fill:#E00008;}
</style>
<g id="Group_462" transform="translate(-811.178 -1221.251)">
	<path id="Path_2393" class="st0" d="M817.378,1234.451c-0.5,0-1-0.4-1-1c0-0.3,0.1-0.5,0.3-0.7l9.1-11.2c0.4-0.4,1-0.4,1.4,0
		s0.4,1,0,1.3l-9.1,11.3C817.878,1234.351,817.578,1234.451,817.378,1234.451L817.378,1234.451z"/>
	<path id="Path_2394" class="st0" d="M817.378,1234.451c-0.3,0-0.5-0.1-0.7-0.3l-5.2-5.2c-0.4-0.4-0.4-1,0-1.4s1-0.4,1.4,0l0,0l0,0
		l5.2,5.2l0,0c0.4,0.4,0.4,1,0,1.4C817.878,1234.351,817.578,1234.451,817.378,1234.451L817.378,1234.451z"/>
</g>
</svg>
