<?xml version="1.0" encoding="utf-8"?>
<!-- Generator: Adobe Illustrator 25.2.3, SVG Export Plug-In . SVG Version: 6.00 Build 0)  -->
<svg version="1.1" id="Layer_1" xmlns="http://www.w3.org/2000/svg" xmlns:xlink="http://www.w3.org/1999/xlink" x="0px" y="0px"
	 viewBox="0 0 8.948 8.948" style="enable-background:new 0 0 8.948 8.948;" xml:space="preserve">
<style type="text/css">
	.st0{fill:#F1F1F1;}
</style>
<path id="np_plus_2268151_000000" class="st0" d="M0.232,0.231c-0.308,0.308-0.308,0.808,0,1.116l3.126,3.126L0.231,7.6
	c-0.308,0.308-0.308,0.808,0,1.117c0.308,0.308,0.808,0.308,1.117,0l0,0L4.474,5.59L7.6,8.717c0.308,0.308,0.808,0.308,1.117,0
	c0.308-0.308,0.308-0.808,0-1.117L5.59,4.474l3.126-3.126c0.308-0.308,0.308-0.808,0-1.117c-0.308-0.308-0.808-0.308-1.117,0
	L4.474,3.357L1.348,0.231C1.04-0.077,0.54-0.077,0.232,0.231z"/>
</svg>
