<?xml version="1.0" encoding="utf-8"?>
<!-- Generator: Adobe Illustrator 25.2.3, SVG Export Plug-In . SVG Version: 6.00 Build 0)  -->
<svg version="1.1" id="np_download_766337_000000" xmlns="http://www.w3.org/2000/svg" xmlns:xlink="http://www.w3.org/1999/xlink"
	 x="0px" y="0px" viewBox="0 0 13.863 17.797" style="enable-background:new 0 0 13.863 17.797;" xml:space="preserve">
<path id="Path_2392" d="M6.932,14.08c-0.542-0.001-0.98-0.439-0.981-0.981V0.982C5.951,0.439,6.391,0,6.933,0
	c0.542,0,0.981,0.439,0.981,0.982V13.1C7.914,13.641,7.474,14.081,6.932,14.08z"/>
<path id="Path_2393" d="M6.932,14.681c-0.542,0-0.981-0.439-0.982-0.98c0-0.261,0.103-0.51,0.288-0.695l5.2-5.2
	c0.383-0.384,1.004-0.384,1.388-0.001s0.384,1.004,0.001,1.388l-5.2,5.2C7.444,14.577,7.194,14.68,6.932,14.681L6.932,14.681z"/>
<path id="Path_2394" d="M6.932,14.681c-0.26,0.001-0.51-0.103-0.694-0.287l-5.2-5.2C0.654,8.811,0.652,8.19,1.034,7.805
	C1.416,7.42,2.038,7.418,2.422,7.8l0,0l5.2,5.2l0,0c0.383,0.383,0.384,1.004,0.001,1.387c-0.184,0.184-0.434,0.288-0.695,0.288
	L6.932,14.681z"/>
<path id="Path_2395" d="M12.881,17.797h-11.9C0.439,17.797,0,17.358,0,16.816s0.439-0.981,0.981-0.981l0,0h11.9
	c0.542,0,0.981,0.439,0.981,0.981S13.424,17.797,12.881,17.797z"/>
</svg>
