<?xml version="1.0" encoding="utf-8"?>
<!-- Generator: Adobe Illustrator 25.2.3, SVG Export Plug-In . SVG Version: 6.00 Build 0)  -->
<svg version="1.1" id="Layer_1" xmlns="http://www.w3.org/2000/svg" xmlns:xlink="http://www.w3.org/1999/xlink" x="0px" y="0px"
	 viewBox="0 0 10.003 15.356" style="enable-background:new 0 0 10.003 15.356;" xml:space="preserve">
<style type="text/css">
	.st0{fill:#CACACA;}
</style>
<g id="np_drag_2259304_000000" transform="translate(-20.093 -4.051)">
	<path id="Path_2425" class="st0" d="M23.249,5.704c0,0.833-0.676,1.509-1.509,1.509c-0.833,0-1.509-0.676-1.509-1.509
		s0.676-1.509,1.509-1.509c0,0,0.001,0,0.001,0C22.574,4.195,23.249,4.87,23.249,5.704C23.249,5.703,23.249,5.704,23.249,5.704"/>
	<path id="Path_2426" class="st0" d="M23.1,5.7c0.001,0.753-0.609,1.364-1.362,1.364s-1.364-0.609-1.364-1.362
		c-0.001-0.753,0.609-1.364,1.362-1.364c0.089,0,0.177,0.008,0.264,0.026C22.636,4.495,23.094,5.051,23.1,5.7
		c0,0.08,0.065,0.145,0.145,0.145S23.39,5.78,23.39,5.7c-0.003-0.913-0.746-1.65-1.659-1.647c-0.913,0.003-1.65,0.746-1.647,1.659
		s0.746,1.65,1.659,1.647c0.113,0,0.226-0.012,0.337-0.036c0.763-0.168,1.309-0.841,1.315-1.623c-0.007-0.08-0.077-0.14-0.158-0.133
		C23.166,5.572,23.11,5.629,23.104,5.7H23.1z"/>
	<path id="Path_2427" class="st0" d="M23.249,11.729c0.001,0.833-0.675,1.509-1.508,1.51c-0.833,0.001-1.509-0.675-1.51-1.508
		c-0.001-0.833,0.675-1.509,1.508-1.51c0.001,0,0.001,0,0.002,0C22.574,10.221,23.249,10.896,23.249,11.729"/>
	<path id="Path_2428" class="st0" d="M23.1,11.73c-0.001,0.753-0.613,1.362-1.366,1.36c-0.753-0.001-1.362-0.613-1.36-1.366
		c0.001-0.753,0.613-1.362,1.366-1.36c0.087,0,0.175,0.009,0.26,0.026C22.637,10.521,23.096,11.08,23.1,11.73
		c0,0.08,0.065,0.145,0.145,0.145s0.145-0.065,0.145-0.145c-0.001-0.913-0.741-1.653-1.654-1.652
		c-0.913,0.001-1.653,0.741-1.652,1.654s0.741,1.653,1.654,1.652c0.113,0,0.226-0.012,0.337-0.035
		c0.762-0.168,1.307-0.839,1.315-1.619c-0.007-0.08-0.077-0.14-0.158-0.133C23.161,11.602,23.105,11.659,23.1,11.73L23.1,11.73z"/>
	<path id="Path_2429" class="st0" d="M23.249,17.755c0.001,0.833-0.675,1.509-1.508,1.51s-1.509-0.675-1.51-1.508
		c-0.001-0.833,0.675-1.509,1.508-1.51c0.001,0,0.001,0,0.002,0C22.574,16.247,23.249,16.922,23.249,17.755L23.249,17.755"/>
	<path id="Path_2430" class="st0" d="M23.1,17.756c-0.001,0.753-0.613,1.362-1.366,1.36c-0.753-0.001-1.362-0.613-1.36-1.366
		c0.001-0.753,0.613-1.362,1.366-1.36c0.087,0,0.175,0.009,0.26,0.026C22.637,16.547,23.096,17.106,23.1,17.756
		c0,0.08,0.065,0.145,0.145,0.145s0.145-0.065,0.145-0.145l0,0c-0.001-0.913-0.741-1.653-1.654-1.652
		c-0.913,0.001-1.653,0.741-1.652,1.654c0.001,0.913,0.741,1.653,1.654,1.652c0.113,0,0.226-0.012,0.337-0.035
		c0.762-0.168,1.307-0.839,1.315-1.619c-0.007-0.08-0.077-0.14-0.158-0.133C23.161,17.628,23.105,17.685,23.1,17.756L23.1,17.756z"
		/>
	<path id="Path_2431" class="st0" d="M29.949,5.704c0,0.833-0.676,1.509-1.509,1.509s-1.509-0.676-1.509-1.509
		c0-0.833,0.676-1.509,1.509-1.509c0.833-0.001,1.508,0.674,1.509,1.507C29.949,5.703,29.949,5.703,29.949,5.704"/>
	<path id="Path_2432" class="st0" d="M29.803,5.7c-0.001,0.753-0.613,1.362-1.366,1.36s-1.362-0.613-1.36-1.366
		c0.001-0.753,0.613-1.362,1.366-1.36c0.087,0,0.175,0.009,0.26,0.026C29.34,4.491,29.799,5.05,29.803,5.7
		c0,0.08,0.065,0.145,0.145,0.145S30.093,5.78,30.093,5.7c-0.001-0.913-0.741-1.653-1.654-1.652
		c-0.913,0.001-1.653,0.741-1.652,1.654s0.741,1.653,1.654,1.652c0.113,0,0.226-0.012,0.337-0.035
		c0.763-0.167,1.309-0.838,1.317-1.619c-0.007-0.08-0.077-0.14-0.158-0.133C29.866,5.572,29.81,5.629,29.803,5.7L29.803,5.7z"/>
	<path id="Path_2433" class="st0" d="M29.949,11.729c0.001,0.833-0.675,1.509-1.508,1.51c-0.833,0.001-1.509-0.675-1.51-1.508
		c-0.001-0.833,0.675-1.509,1.508-1.51c0,0,0.001,0,0.001,0C29.273,10.22,29.948,10.895,29.949,11.729
		C29.949,11.728,29.949,11.729,29.949,11.729"/>
	<path id="Path_2434" class="st0" d="M29.803,11.73c-0.001,0.753-0.613,1.362-1.366,1.36c-0.753-0.001-1.362-0.613-1.36-1.366
		c0.001-0.753,0.613-1.362,1.366-1.36c0.087,0,0.175,0.009,0.26,0.026C29.34,10.521,29.799,11.08,29.803,11.73
		c0,0.08,0.065,0.145,0.145,0.145s0.145-0.065,0.145-0.145c-0.001-0.913-0.741-1.653-1.654-1.652
		c-0.913,0.001-1.653,0.741-1.652,1.654s0.741,1.653,1.654,1.652c0.113,0,0.226-0.012,0.337-0.035
		c0.762-0.168,1.307-0.839,1.315-1.619c-0.007-0.08-0.077-0.14-0.158-0.133C29.864,11.602,29.808,11.659,29.803,11.73L29.803,11.73z
		"/>
	<path id="Path_2435" class="st0" d="M29.949,17.755c0.001,0.833-0.675,1.509-1.508,1.51s-1.509-0.675-1.51-1.508
		c-0.001-0.833,0.675-1.509,1.508-1.51c0,0,0.001,0,0.001,0C29.273,16.247,29.948,16.922,29.949,17.755"/>
	<path id="Path_2436" class="st0" d="M29.803,17.756c-0.001,0.753-0.613,1.362-1.366,1.36s-1.362-0.613-1.36-1.366
		s0.613-1.362,1.366-1.36c0.087,0,0.175,0.009,0.26,0.026C29.34,16.547,29.799,17.106,29.803,17.756c0,0.08,0.065,0.145,0.145,0.145
		s0.145-0.065,0.145-0.145l0,0c-0.001-0.913-0.741-1.653-1.654-1.652c-0.913,0.001-1.653,0.741-1.652,1.654
		c0.001,0.913,0.741,1.653,1.654,1.652c0.113,0,0.226-0.012,0.337-0.035c0.762-0.168,1.307-0.839,1.315-1.619
		c-0.007-0.08-0.077-0.14-0.158-0.133C29.864,17.628,29.808,17.685,29.803,17.756L29.803,17.756z"/>
</g>
</svg>
