<?xml version="1.0" encoding="utf-8"?>
<!-- Generator: Adobe Illustrator 25.2.3, SVG Export Plug-In . SVG Version: 6.00 Build 0)  -->
<svg version="1.1" id="Layer_1" xmlns="http://www.w3.org/2000/svg" xmlns:xlink="http://www.w3.org/1999/xlink" x="0px" y="0px"
	 viewBox="0 0 19.516 13.618" style="enable-background:new 0 0 19.516 13.618;" xml:space="preserve">
<path id="np_menu_942374_000000" d="M18.512,7.782H1.004C0.467,7.799,0.018,7.377,0.001,6.84c-0.017-0.537,0.404-0.986,0.941-1.004
	c0.021-0.001,0.042-0.001,0.062,0h17.508c0.537-0.017,0.986,0.404,1.004,0.941c0.017,0.537-0.404,0.986-0.941,1.004
	C18.554,7.782,18.533,7.782,18.512,7.782z M18.512,1.946H1.004C0.467,1.963,0.018,1.541,0.001,1.004
	c-0.017-0.537,0.404-0.986,0.941-1.004C0.963,0,0.983,0,1.004,0.001h17.508c0.537-0.017,0.986,0.404,1.004,0.941
	c0.017,0.537-0.404,0.986-0.941,1.004C18.554,1.946,18.533,1.946,18.512,1.946z M1.004,11.673h17.508
	c0.537-0.017,0.986,0.404,1.004,0.941c0.017,0.537-0.404,0.986-0.941,1.004c-0.021,0.001-0.042,0.001-0.062,0H1.004
	c-0.537,0.017-0.986-0.404-1.004-0.941c-0.017-0.537,0.404-0.986,0.941-1.004C0.963,11.672,0.983,11.672,1.004,11.673z"/>
</svg>
