<?xml version="1.0" encoding="utf-8"?>
<!-- Generator: Adobe Illustrator 25.2.3, SVG Export Plug-In . SVG Version: 6.00 Build 0)  -->
<svg version="1.1" id="Layer_1" xmlns="http://www.w3.org/2000/svg" xmlns:xlink="http://www.w3.org/1999/xlink" x="0px" y="0px"
	 viewBox="0 0 19.496 18.535" style="enable-background:new 0 0 19.496 18.535;" xml:space="preserve">
<style type="text/css">
	.st0{fill:#CACACA;}
</style>
<g id="np_message_2162373_000000" transform="translate(-0.164 -2.402)">
	<path id="Path_2400" class="st0" d="M11.707,2.402h-3.68c-4.339-0.004-7.86,3.511-7.863,7.851c-0.002,2.598,1.28,5.029,3.425,6.494
		c-0.22,2.952,0.044,3.516,0.36,3.861c0.187,0.209,0.454,0.328,0.735,0.329h0.025c0.374-0.009,0.837-0.022,3.718-2.808h3.281
		c4.342,0.049,7.902-3.432,7.951-7.774c0.049-4.342-3.432-7.902-7.774-7.951c-0.059-0.001-0.118-0.001-0.177,0L11.707,2.402z
		 M11.707,16.442H7.742l-0.246,0.24c-1.132,1.1-1.853,1.741-2.3,2.107c-0.008-0.482,0.013-1.237,0.113-2.409l0.045-0.528
		l-0.453-0.267c-2.942-1.723-3.931-5.504-2.208-8.446c1.11-1.895,3.143-3.058,5.339-3.054h3.68c3.412,0,6.177,2.766,6.177,6.177
		s-2.766,6.177-6.177,6.177L11.707,16.442z"/>
	<path id="Path_2401" class="st0" d="M6.615,10.267c-0.001,0.762-0.618,1.379-1.38,1.378s-1.379-0.618-1.378-1.38
		c0.001-0.761,0.618-1.378,1.379-1.378C5.998,8.887,6.615,9.504,6.615,10.267C6.615,10.266,6.615,10.267,6.615,10.267"/>
	<path id="Path_2402" class="st0" d="M11.247,10.267c0,0.762-0.618,1.38-1.38,1.38c-0.762,0-1.38-0.618-1.38-1.38
		c0-0.762,0.618-1.38,1.38-1.38c0.762-0.001,1.379,0.616,1.38,1.378C11.247,10.266,11.247,10.266,11.247,10.267"/>
	<path id="Path_2403" class="st0" d="M15.877,10.267c-0.001,0.762-0.618,1.379-1.38,1.378c-0.762-0.001-1.379-0.618-1.378-1.38
		c0.001-0.761,0.617-1.377,1.378-1.378c0.762-0.001,1.379,0.616,1.38,1.378C15.877,10.266,15.877,10.266,15.877,10.267"/>
</g>
</svg>
