<?xml version="1.0" encoding="utf-8"?>
<!-- Generator: Adobe Illustrator 25.2.3, SVG Export Plug-In . SVG Version: 6.00 Build 0)  -->
<svg version="1.1" id="Layer_1" xmlns="http://www.w3.org/2000/svg" xmlns:xlink="http://www.w3.org/1999/xlink" x="0px" y="0px"
	 viewBox="0 0 30.179 22.168" style="enable-background:new 0 0 30.179 22.168;" xml:space="preserve">
<style type="text/css">
	.st0{fill:#BDBFC1;}
</style>
<g id="Group_330" transform="translate(-172 -124.869)">
	<path id="Wifi" class="st0" d="M187.09,147.037c-0.165,0-0.322-0.066-0.438-0.183l-3.953-3.986
		c-0.243-0.24-0.246-0.632-0.006-0.875c0.008-0.008,0.017-0.017,0.026-0.025c2.52-2.132,6.212-2.132,8.732,0
		c0.125,0.115,0.198,0.276,0.2,0.446c0.003,0.171-0.064,0.335-0.185,0.455l-3.948,3.984
		C187.406,146.969,187.252,147.035,187.09,147.037z M194.023,140.046c-0.157,0-0.308-0.059-0.423-0.167
		c-3.692-3.346-9.321-3.346-13.013,0c-0.115,0.108-0.266,0.167-0.423,0.167c-0.163,0-0.319-0.064-0.434-0.18l-2.28-2.3
		c-0.249-0.248-0.249-0.651-0.001-0.899c0.003-0.003,0.005-0.005,0.008-0.008c5.43-5.053,13.842-5.053,19.272,0
		c0.125,0.118,0.197,0.281,0.2,0.452c0.001,0.17-0.066,0.334-0.185,0.455l-2.282,2.3
		C194.346,139.983,194.187,140.048,194.023,140.046L194.023,140.046z M199.278,134.741c-0.158,0-0.31-0.062-0.423-0.173
		c-6.591-6.268-16.939-6.268-23.53,0c-0.113,0.111-0.265,0.173-0.423,0.173c-0.163,0-0.319-0.064-0.434-0.18l-2.284-2.305
		c-0.247-0.249-0.246-0.651,0.003-0.898c0.001-0.001,0.001-0.001,0.002-0.002c8.33-7.981,21.47-7.981,29.8,0
		c0.12,0.119,0.188,0.281,0.189,0.45c0.002,0.169-0.065,0.332-0.185,0.452l-2.284,2.3
		C199.596,134.674,199.441,134.74,199.278,134.741z"/>
	<path id="np_plus_2268151_000000" class="st0" d="M190.521,131.358l6.042-6.042c0.596-0.596,1.562-0.596,2.158,0
		c0.596,0.596,0.596,1.562,0,2.158l-18.484,18.484c-0.596,0.596-1.562,0.596-2.158,0c-0.596-0.596-0.596-1.562,0-2.158
		l12.445-12.445L190.521,131.358z"/>
</g>
</svg>
