<?xml version="1.0" encoding="utf-8"?>
<!-- Generator: Adobe Illustrator 25.2.3, SVG Export Plug-In . SVG Version: 6.00 Build 0)  -->
<svg version="1.1" id="Layer_1" xmlns="http://www.w3.org/2000/svg" xmlns:xlink="http://www.w3.org/1999/xlink" x="0px" y="0px"
	 viewBox="0 0 6 8" style="enable-background:new 0 0 6 8;" xml:space="preserve">
<style type="text/css">
	.st0{fill:#FFFFFF;}
</style>
<g transform="translate(-20.535 -8.047)">
	<path class="st0" d="M20.75,8.047h1.908c0.11-0.008,0.206,0.074,0.215,0.184c0,0.002,0,0.004,0,0.006v7.619
		c-0.005,0.11-0.098,0.196-0.208,0.191c-0.002,0-0.005,0-0.007,0H20.75c-0.11,0.008-0.206-0.074-0.215-0.184
		c0-0.002,0-0.005,0-0.007V8.237c0.005-0.11,0.099-0.196,0.209-0.19C20.746,8.047,20.748,8.047,20.75,8.047z"/>
	<path class="st0" d="M24.412,8.047h1.907c0.11-0.008,0.206,0.075,0.214,0.185c0,0.002,0,0.003,0,0.005v7.619
		c-0.005,0.11-0.098,0.196-0.208,0.191c-0.002,0-0.004,0-0.006,0h-1.907c-0.11,0.008-0.206-0.075-0.214-0.185
		c0-0.002,0-0.004,0-0.006V8.237c0.005-0.11,0.099-0.196,0.209-0.19C24.409,8.047,24.41,8.047,24.412,8.047z"/>
</g>
</svg>
