<?xml version="1.0" encoding="utf-8"?>
<!-- Generator: Adobe Illustrator 24.1.2, SVG Export Plug-In . SVG Version: 6.00 Build 0)  -->
<svg version="1.1" id="Layer_1" xmlns="http://www.w3.org/2000/svg" xmlns:xlink="http://www.w3.org/1999/xlink" x="0px" y="0px"
	 viewBox="0 0 12 12" style="enable-background:new 0 0 12 12;" xml:space="preserve">
<style type="text/css">
	.st0{fill:#7C7C7C;}
</style>
<path id="np_plus_2268151_000000" class="st0" d="M6,2.553c-0.251,0-0.454,0.203-0.454,0.454l0,0v2.54h-2.54
	c-0.25,0.012-0.444,0.224-0.432,0.475c0.011,0.234,0.198,0.421,0.432,0.432h2.54v2.54c0.012,0.25,0.224,0.444,0.475,0.432
	c0.234-0.011,0.421-0.198,0.432-0.432V6.453h2.54c0.25-0.012,0.444-0.224,0.432-0.475C9.414,5.744,9.227,5.557,8.993,5.546h-2.54
	v-2.54C6.452,2.756,6.25,2.554,6,2.553z"/>
<g>
	<path class="st0" d="M6,0.8c2.867,0,5.2,2.333,5.2,5.2S8.867,11.2,6,11.2S0.8,8.867,0.8,6S3.133,0.8,6,0.8 M6,0
		C2.686,0,0,2.686,0,6s2.686,6,6,6s6-2.686,6-6S9.314,0,6,0L6,0z"/>
</g>
</svg>
