<?xml version="1.0" encoding="utf-8"?>
<!-- Generator: Adobe Illustrator 25.2.3, SVG Export Plug-In . SVG Version: 6.00 Build 0)  -->
<svg version="1.1" id="Layer_1" xmlns="http://www.w3.org/2000/svg" xmlns:xlink="http://www.w3.org/1999/xlink" x="0px" y="0px"
	 viewBox="0 0 32 32" style="enable-background:new 0 0 32 32;" xml:space="preserve">
<style type="text/css">
	.st0{fill:none;stroke:#000000;stroke-width:1.5152;}
</style>
<g id="Group_452" transform="translate(1 0.707)">
	<g id="Group_401" transform="translate(0 0)">
		<path id="Path_2533" class="st0" d="M14.962,3.778c0.455,0,0.833,0,1.288,0.076s0.833,0.076,1.288,0.227
			c0.455,0.076,0.833,0.152,1.288,0.303c0.455,0.152,0.833,0.303,1.212,0.455s0.758,0.379,1.136,0.53s0.758,0.455,1.136,0.682
			s0.682,0.53,1.061,0.758c0.303,0.303,0.682,0.53,0.985,0.833c0.303,0.303,0.606,0.606,0.833,0.985
			c0.303,0.303,0.53,0.682,0.758,1.061s0.455,0.758,0.682,1.136c0.227,0.379,0.379,0.758,0.53,1.136s0.303,0.833,0.455,1.212
			c0.152,0.379,0.227,0.833,0.303,1.288c0.076,0.455,0.152,0.833,0.227,1.288c0.076,0.455,0.076,0.833,0.076,1.288
			s0,0.833-0.076,1.288c-0.076,0.455-0.076,0.833-0.227,1.288c-0.076,0.455-0.152,0.833-0.303,1.288
			c-0.152,0.379-0.303,0.833-0.455,1.212c-0.152,0.379-0.379,0.758-0.53,1.136c-0.227,0.379-0.455,0.758-0.682,1.136
			c-0.227,0.379-0.53,0.682-0.758,1.061c-0.303,0.303-0.53,0.682-0.833,0.985c-0.303,0.303-0.606,0.606-0.985,0.833
			c-0.303,0.303-0.682,0.53-1.061,0.758s-0.758,0.455-1.136,0.682s-0.758,0.379-1.136,0.53s-0.833,0.303-1.212,0.455
			c-0.379,0.152-0.833,0.227-1.288,0.303c-0.455,0.076-0.833,0.152-1.288,0.227c-0.455,0.076-0.833,0.076-1.288,0.076
			s-0.833,0-1.288-0.076s-0.833-0.076-1.288-0.227c-0.455-0.076-0.833-0.152-1.288-0.303c-0.455-0.152-0.833-0.303-1.212-0.455
			c-0.379-0.152-0.758-0.379-1.136-0.53c-0.379-0.152-0.758-0.455-1.136-0.682c-0.379-0.227-0.682-0.53-1.061-0.758
			c-0.303-0.303-0.682-0.53-0.985-0.833c-0.303-0.303-0.606-0.606-0.833-0.985c-0.303-0.303-0.53-0.682-0.758-1.061
			c-0.227-0.379-0.455-0.758-0.682-1.136c-0.227-0.379-0.379-0.758-0.53-1.136c-0.152-0.379-0.303-0.833-0.455-1.212
			c-0.152-0.379-0.227-0.833-0.303-1.288c-0.076-0.455-0.152-0.833-0.152-1.288C1.78,17.869,1.78,17.49,1.78,17.035"/>
		<path id="Path_2534" class="st0" d="M17.917,7.263l-3.485-3.485l3.485-3.485"/>
	</g>
	<g id="ZINĀMAIS_NEZINĀMAJĀ" transform="translate(10.697 17.32)">
		<g id="Group_402">
			<path id="Path_2535" d="M0.399-2.542h-1.136v-1.364H1.99V4.2H0.399V-2.542z"/>
			<path id="Path_2536" d="M8.96-2.542H6.308L6.005-1.254c0.152,0,0.379-0.076,0.53-0.076c0.758,0,1.515,0.303,2.121,0.833
				c0.455,0.53,0.758,1.212,0.682,1.97c0,0.758-0.303,1.591-0.833,2.121C7.899,4.2,7.142,4.503,6.308,4.428
				C5.323,4.503,4.263,4.125,3.581,3.367l0.53-1.364c0.227,0.303,0.53,0.53,0.833,0.758c0.379,0.227,0.758,0.303,1.212,0.303
				c0.455,0,0.909-0.152,1.212-0.455c0.303-0.303,0.455-0.758,0.455-1.212S7.672,0.564,7.369,0.261
				C6.99-0.042,6.536-0.194,6.081-0.118c-0.606,0-1.212,0.152-1.742,0.53L5.323-3.83h3.712L8.96-2.542z"/>
		</g>
	</g>
</g>
</svg>
