<?xml version="1.0" encoding="utf-8"?>
<!-- Generator: Adobe Illustrator 25.2.3, SVG Export Plug-In . SVG Version: 6.00 Build 0)  -->
<svg version="1.1" id="Layer_1" xmlns="http://www.w3.org/2000/svg" xmlns:xlink="http://www.w3.org/1999/xlink" x="0px" y="0px"
	 viewBox="0 0 13.675 15" style="enable-background:new 0 0 13.675 15;" xml:space="preserve">
<style type="text/css">
	.st0{fill:#CACACA;}
</style>
<path id="np_share_888726_000000" class="st0" d="M11.469,10.585c-0.475,0.011-0.936,0.165-1.323,0.441L4.367,7.72
	c0.01-0.074,0.025-0.148,0.044-0.221c0-0.044,0-0.176-0.044-0.221l5.779-3.307c0.384,0.282,0.847,0.437,1.323,0.441
	c1.218,0,2.206-0.988,2.206-2.206S12.688,0,11.469,0c-1.218,0-2.206,0.988-2.206,2.206v0C9.257,2.282,9.272,2.359,9.307,2.427
	L3.529,5.736C2.555,5.005,1.172,5.203,0.441,6.178C-0.29,7.152-0.092,8.535,0.883,9.266c0.382,0.286,0.846,0.441,1.324,0.441
	c0.475-0.011,0.936-0.165,1.323-0.441l5.778,3.308c0,0.088-0.044,0.132-0.044,0.221c0.001,1.218,0.989,2.206,2.207,2.205
	s2.206-0.989,2.205-2.207c-0.001-1.218-0.989-2.206-2.207-2.205c-0.002,0-0.003,0-0.005,0L11.469,10.585z"/>
</svg>
