<?xml version="1.0" encoding="utf-8"?>
<!-- Generator: Adobe Illustrator 24.1.2, SVG Export Plug-In . SVG Version: 6.00 Build 0)  -->
<svg version="1.1" id="Layer_1" xmlns="http://www.w3.org/2000/svg" xmlns:xlink="http://www.w3.org/1999/xlink" x="0px" y="0px"
	 viewBox="0 0 10.3 13.9" style="enable-background:new 0 0 10.3 13.9;" xml:space="preserve">
<g id="Group_463" transform="translate(-308.679 -504)">
	<g id="np_download_766337_000000" transform="translate(307.483 517.86) rotate(-90)">
		<path id="Path_2393" d="M6.96,4.296c0.2,0,0.5,0.1,0.7,0.3l5.2,5.2c0.4,0.4,0.4,1,0,1.4s-1,0.4-1.4,0l-5.2-5.2
			c-0.2-0.2-0.3-0.4-0.3-0.7C5.96,4.696,6.46,4.296,6.96,4.296L6.96,4.296z"/>
		<path id="Path_2394" d="M6.96,4.296c0.2,0,0.5,0.1,0.7,0.3c0.4,0.4,0.4,1,0,1.4l0,0l-5.2,5.2l0,0c-0.4,0.4-1,0.4-1.4,0
			c-0.4-0.4-0.4-1,0-1.4l5.2-5.2C6.46,4.396,6.66,4.296,6.96,4.296L6.96,4.296z"/>
		<path id="Path_2395" d="M13.86,2.196c0,0.6-0.5,1-1,1H0.96l0,0c-0.6,0-1-0.4-1-1s0.5-1,1-1h11.9
			C13.46,1.196,13.86,1.596,13.86,2.196z"/>
	</g>
</g>
</svg>
