<?xml version="1.0" encoding="utf-8"?>
<!-- Generator: Adobe Illustrator 25.2.3, SVG Export Plug-In . SVG Version: 6.00 Build 0)  -->
<svg version="1.1" id="Layer_1" xmlns="http://www.w3.org/2000/svg" xmlns:xlink="http://www.w3.org/1999/xlink" x="0px" y="0px"
	 viewBox="0 0 21.829 21.829" style="enable-background:new 0 0 21.829 21.829;" xml:space="preserve">
<path id="np_search_1166289_000000" d="M8.792,0C3.936-0.008-0.006,3.922-0.014,8.778s3.922,8.798,8.778,8.806
	c2.026,0.003,3.99-0.693,5.562-1.971l5.95,5.95c0.356,0.355,0.932,0.355,1.288,0c0.353-0.35,0.356-0.92,0.006-1.273
	c-0.002-0.002-0.004-0.004-0.006-0.006l-5.95-5.95c3.062-3.766,2.492-9.302-1.274-12.364C12.771,0.695,10.812,0,8.792,0z
	 M8.792,1.819c3.851,0,6.973,3.122,6.973,6.973s-3.122,6.973-6.973,6.973s-6.973-3.122-6.973-6.973l0,0
	C1.811,4.949,4.921,1.827,8.764,1.819C8.773,1.819,8.783,1.819,8.792,1.819z"/>
</svg>
