<?xml version="1.0" encoding="utf-8"?>
<!-- Generator: Adobe Illustrator 25.2.3, SVG Export Plug-In . SVG Version: 6.00 Build 0)  -->
<svg version="1.1" id="np_speed_1914448_000000" xmlns="http://www.w3.org/2000/svg" xmlns:xlink="http://www.w3.org/1999/xlink"
	 x="0px" y="0px" viewBox="0 0 16.129 12.2" style="enable-background:new 0 0 16.129 12.2;" xml:space="preserve">
<style type="text/css">
	.st0{fill:#7C7C7C;}
</style>
<path id="Path_2404" class="st0" d="M8.065,0C3.612,0.004,0.003,3.614,0,8.067c0.003,1.306,0.318,2.593,0.917,3.753
	c0.116,0.231,0.354,0.376,0.612,0.373c0.113,0.004,0.225-0.026,0.322-0.085c0.337-0.179,0.466-0.596,0.289-0.934
	c-0.497-0.961-0.759-2.025-0.764-3.107c0-3.695,2.995-6.69,6.69-6.69c3.695,0,6.69,2.995,6.69,6.69c0,1.083-0.263,2.15-0.766,3.109
	c-0.184,0.334-0.062,0.755,0.272,0.939c0.334,0.184,0.755,0.062,0.939-0.272c0.004-0.007,0.008-0.015,0.012-0.022
	c0.609-1.157,0.924-2.446,0.917-3.753C16.127,3.614,12.518,0.003,8.065,0z"/>
<path id="Path_2405" class="st0" d="M11.365,3.988l-4.227,2.62c-0.514,0.326-0.827,0.891-0.828,1.5
	c0.009,0.961,0.795,1.734,1.756,1.725C8.68,9.828,9.245,9.5,9.554,8.971l2.536-4.28c0.151-0.244,0.076-0.564-0.167-0.715
	c-0.171-0.106-0.389-0.104-0.558,0.007V3.988z"/>
<path id="Path_2406" class="st0" d="M8.808,2.996c0,0.41-0.332,0.742-0.742,0.742S7.324,3.406,7.324,2.996l0,0
	c0-0.41,0.332-0.742,0.742-0.742S8.808,2.586,8.808,2.996"/>
<path id="Path_2407" class="st0" d="M5.016,3.95c0.297,0.282,0.309,0.752,0.027,1.049C4.761,5.296,4.291,5.308,3.994,5.026
	C3.985,5.017,3.976,5.008,3.967,4.999C3.685,4.702,3.697,4.232,3.994,3.95C4.28,3.678,4.73,3.678,5.016,3.95"/>
<path id="Path_2408" class="st0" d="M3.797,8.045c0,0.41-0.332,0.742-0.742,0.742S2.313,8.455,2.313,8.045s0.332-0.742,0.742-0.742
	S3.797,7.635,3.797,8.045"/>
<path id="Path_2409" class="st0" d="M13.835,8.062c0,0.41-0.332,0.742-0.742,0.742c-0.41,0-0.742-0.332-0.742-0.742
	s0.332-0.742,0.742-0.742C13.503,7.32,13.835,7.652,13.835,8.062"/>
</svg>
