<?xml version="1.0" encoding="utf-8"?>
<!-- Generator: Adobe Illustrator 24.1.2, SVG Export Plug-In . SVG Version: 6.00 Build 0)  -->
<svg version="1.1" id="Layer_1" xmlns="http://www.w3.org/2000/svg" xmlns:xlink="http://www.w3.org/1999/xlink" x="0px" y="0px"
	 viewBox="0 0 10.3 13.9" style="enable-background:new 0 0 10.3 13.9;" xml:space="preserve">
<g id="Group_463" transform="translate(-308.679 -504)">
	<g id="np_download_766337_000000" transform="translate(307.483 517.86) rotate(-90)">
		<path id="Path_2393" d="M6.96,8.396c-0.5,0-1-0.4-1-1c0-0.3,0.1-0.5,0.3-0.7l5.2-5.2c0.4-0.4,1-0.4,1.4,0s0.4,1,0,1.4l-5.2,5.2
			C7.46,8.296,7.16,8.396,6.96,8.396L6.96,8.396z"/>
		<path id="Path_2394" d="M6.96,8.396c-0.3,0-0.5-0.1-0.7-0.3l-5.2-5.2c-0.4-0.4-0.4-1,0-1.4s1-0.4,1.4,0l0,0l5.2,5.2l0,0
			c0.4,0.4,0.4,1,0,1.4C7.46,8.296,7.16,8.396,6.96,8.396L6.96,8.396z"/>
		<path id="Path_2395" d="M12.86,11.496H0.96c-0.5,0-1-0.4-1-1s0.4-1,1-1l0,0h11.9c0.5,0,1,0.4,1,1S13.46,11.496,12.86,11.496z"/>
	</g>
</g>
</svg>
