<?xml version="1.0" encoding="utf-8"?>
<!-- Generator: Adobe Illustrator 25.2.3, SVG Export Plug-In . SVG Version: 6.00 Build 0)  -->
<svg version="1.1" id="Layer_1" xmlns="http://www.w3.org/2000/svg" xmlns:xlink="http://www.w3.org/1999/xlink" x="0px" y="0px"
	 viewBox="0 0 13.365 13.956" style="enable-background:new 0 0 13.365 13.956;" xml:space="preserve">
<style type="text/css">
	.st0{fill:#7C7C7C;}
</style>
<path id="np_volume_1392421_000000" class="st0" d="M1.26,4.868h1.675L6.801,0.3c0.415-0.49,0.747-0.365,0.747,0.271V13.36
	c0,0.633-0.365,0.788-0.815,0.338l-3.8-3.8H1.26C0.565,9.899,0.001,9.337,0,8.642c0,0,0-0.001,0-0.001V6.124
	C0.001,5.429,0.565,4.866,1.26,4.868L1.26,4.868z M13.36,6.968c0.103,2.774-1.522,5.323-4.081,6.4
	c-0.3,0.064-0.603-0.099-0.714-0.385c-0.096-0.29,0.006-0.609,0.254-0.788c2.078-0.886,3.388-2.97,3.285-5.227
	c0.104-2.26-1.207-4.346-3.289-5.232c-0.248-0.179-0.35-0.498-0.254-0.788c0.111-0.286,0.414-0.449,0.714-0.385
	c2.558,1.079,4.181,3.628,4.077,6.402L13.36,6.968z M10.695,6.968c0.006,0.959-0.303,1.894-0.879,2.661
	c-0.246,0.181-0.582,0.181-0.828,0C8.751,9.446,8.682,9.118,8.824,8.855c0.818-1.125,0.818-2.65,0-3.775
	C8.682,4.816,8.751,4.489,8.988,4.306c0.246-0.181,0.582-0.181,0.828,0C10.392,5.073,10.701,6.008,10.695,6.968z"/>
</svg>
