<?xml version="1.0" encoding="utf-8"?>
<!-- Generator: Adobe Illustrator 26.0.1, SVG Export Plug-In . SVG Version: 6.00 Build 0)  -->
<svg version="1.1" id="Latvijas_Radio_logo" xmlns="http://www.w3.org/2000/svg" xmlns:xlink="http://www.w3.org/1999/xlink"
	 x="0px" y="0px" viewBox="0 0 661.2 337.5" style="enable-background:new 0 0 661.2 337.5;" xml:space="preserve">
<style type="text/css">
	.st0{fill:#E00008;}
	.st1{fill:#FFFFFF;}
</style>
<g>
	<g>
		<rect class="st0" width="337.5" height="337.5"/>
		<path class="st1" d="M55,283.4h84.6c1.9-91.2,51.2-140.7,143-143.9V54.9c-67.4,1.8-123.7,22.9-163.3,61.4
			C78.3,156.3,56.1,214,55,283.4z"/>
	</g>
	<g>
		<path d="M404.3,189.5h14.9v9.2h-25.4v-54h10.5V189.5z"/>
		<path d="M462.2,198.7h-9.9v-3.2h-0.1c-2.1,2.8-5.9,4.4-9.5,4.4c-10.3,0-16.2-9.4-16.2-18.9c0-9.3,5.9-18.6,16-18.6
			c3.7,0,7.4,1.6,9.8,4.4v-3.3h9.9V198.7z M453.4,181.1c0-4.7-3.2-9.8-8.4-9.8c-5.2,0-8.3,5.1-8.3,9.8c0,4.7,3.2,9.9,8.3,9.9
			C450.1,191,453.4,185.8,453.4,181.1z"/>
		<path d="M487.1,198.7h-10V172h-4.4v-8.5h4.4v-11.9h10v11.9h6.2v8.5h-6.2V198.7z"/>
		<path d="M519.6,183.4l7.2-19.8h11l-16.2,35.9h-5.2l-16.1-35.9h11L519.6,183.4z"/>
		<path d="M557.8,148.8c0,3.3-2.6,5.9-5.9,5.9c-3.3,0-5.9-2.6-5.9-5.9c0-3.2,2.7-5.9,5.9-5.9C555.1,142.8,557.8,145.5,557.8,148.8z
			 M556.9,198.7h-10v-35.2h10V198.7z"/>
		<path d="M579.6,148.8c0,3.3-2.7,5.9-5.9,5.9s-5.9-2.6-5.9-5.9c0-3.2,2.7-5.9,5.9-5.9S579.6,145.5,579.6,148.8z M578.7,217.5h-10
			v-53.9h10V217.5z"/>
		<path d="M625.7,198.7h-9.9v-3.2h-0.1c-2.1,2.8-5.9,4.4-9.5,4.4c-10.3,0-16.2-9.4-16.2-18.9c0-9.3,5.9-18.6,16-18.6
			c3.7,0,7.4,1.6,9.8,4.4v-3.3h9.9V198.7z M616.8,181.1c0-4.7-3.2-9.8-8.4-9.8c-5.2,0-8.3,5.1-8.3,9.8c0,4.7,3.2,9.9,8.3,9.9
			C613.6,191,616.8,185.8,616.8,181.1z"/>
		<path d="M655.3,171.8c-1.4-1.4-3.3-2.4-5.3-2.4c-1.6,0-3.3,1.3-3.3,3c0,2.6,3.7,3.3,7.2,4.9c3.7,1.6,7.2,4,7.2,10.1
			c0,7.8-6.3,12.5-13.7,12.5c-4.7,0-9.3-2.1-12.4-5.9l4.6-5.9c1.9,2.1,4.5,4.1,7.4,4.1c2.2,0,4-1.5,4-3.8c0-3.1-3.5-3.8-7-5.3
			c-3.5-1.5-7-3.6-7-9.2c0-6.6,4.6-11.4,11.2-11.4c3.7,0,8.5,1.1,11.3,3.7L655.3,171.8z"/>
		<path d="M430.3,283.7h-12.8l-13.1-21.8h-0.1v21.8h-10.5v-54h14.3c10.7,0,18.1,4.7,18.1,16.3c0,6.9-3.8,13.8-11,15L430.3,283.7z
			 M404.3,254.5h1.4c5.8,0,9.9-1.7,9.9-8.3c0-6.7-4.2-8-9.8-8h-1.4V254.5z"/>
		<path d="M471.4,283.7h-9.9v-3.2h-0.1c-2.1,2.8-5.9,4.4-9.5,4.4c-10.3,0-16.2-9.4-16.2-18.9c0-9.3,5.9-18.6,16-18.6
			c3.7,0,7.4,1.6,9.8,4.4v-3.3h9.9V283.7z M462.6,266.1c0-4.7-3.2-9.8-8.4-9.8s-8.3,5.1-8.3,9.8c0,4.7,3.2,9.9,8.3,9.9
			S462.6,270.8,462.6,266.1z"/>
		<path d="M506.2,280.4H506c-2.1,2.9-5.8,4.4-9.5,4.4c-10.3,0-16.2-9.4-16.2-18.9c0-9.3,5.9-18.6,16-18.6c3.7,0,7.4,1.6,9.6,4.4h0.1
			v-22.1h10v54h-10V280.4z M507.2,266.1c0-4.7-3.2-9.8-8.3-9.8s-8.3,5.1-8.3,9.8c0,4.7,3.2,9.9,8.3,9.9S507.2,270.8,507.2,266.1z"/>
		<path d="M540.3,233.8c0,3.3-2.6,5.9-5.9,5.9c-3.3,0-5.9-2.7-5.9-5.9c0-3.2,2.7-5.9,5.9-5.9C537.7,227.8,540.3,230.6,540.3,233.8z
			 M539.4,283.7h-10v-35.2h10V283.7z"/>
		<path d="M587.5,266.2c0,10.9-7.4,18.7-18.5,18.7c-11,0-18.5-7.8-18.5-18.7c0-11,7.5-18.8,18.5-18.8
			C580,247.4,587.5,255.2,587.5,266.2z M560.7,266.2c0,4.7,3.2,9.8,8.3,9.8c5.2,0,8.3-5.1,8.3-9.8c0-4.9-3.2-9.9-8.3-9.9
			C563.9,256.3,560.7,261.3,560.7,266.2z"/>
	</g>
</g>
</svg>
