<?xml version="1.0" encoding="utf-8"?>
<!-- Generator: Adobe Illustrator 25.2.3, SVG Export Plug-In . SVG Version: 6.00 Build 0)  -->
<svg version="1.1" id="Icons" xmlns="http://www.w3.org/2000/svg" xmlns:xlink="http://www.w3.org/1999/xlink" x="0px" y="0px"
	 viewBox="0 0 16 16" style="enable-background:new 0 0 16 16;" xml:space="preserve">
<style type="text/css">
	.st0{fill:#CACACA;}
</style>
<path class="st0" d="M8,0C3.582,0,0,3.582,0,8s3.582,8,8,8s8-3.582,8-8C15.995,3.584,12.416,0.005,8,0z M8,14.667
	c-3.682,0-6.667-2.985-6.667-6.667S4.318,1.333,8,1.333S14.667,4.318,14.667,8C14.663,11.68,11.68,14.663,8,14.667z"/>
<path class="st0" d="M8.667,7.724V4c0-0.368-0.298-0.667-0.667-0.667C7.632,3.333,7.333,3.632,7.333,4v4
	c0,0.177,0.07,0.346,0.195,0.471l2,2c0.265,0.256,0.687,0.248,0.943-0.016c0.25-0.258,0.25-0.668,0-0.926L8.667,7.724z"/>
</svg>
