<?xml version="1.0" encoding="utf-8"?>
<!-- Generator: Adobe Illustrator 24.1.2, SVG Export Plug-In . SVG Version: 6.00 Build 0)  -->
<svg version="1.1" id="Layer_1" xmlns="http://www.w3.org/2000/svg" xmlns:xlink="http://www.w3.org/1999/xlink" x="0px" y="0px"
	 viewBox="0 0 12 12" style="enable-background:new 0 0 12 12;" xml:space="preserve">
<path d="M6.001,0C5.565,0,5.212,0.353,5.212,0.789V5.21H0.79C0.353,5.21,0,5.563,0,6c0,0.436,0.353,0.789,0.79,0.789l0,0H5.21v4.421
	C5.21,11.646,5.564,12,6,12c0.436,0,0.789-0.353,0.789-0.79V6.789h4.421C11.647,6.789,12,6.436,12,6c0-0.436-0.353-0.79-0.79-0.79
	H6.79V0.789C6.79,0.353,6.436,0,6.001,0z"/>
</svg>
