<?xml version="1.0" encoding="utf-8"?>
<!-- Generator: Adobe Illustrator 25.2.3, SVG Export Plug-In . SVG Version: 6.00 Build 0)  -->
<svg version="1.1" id="Layer_1" xmlns="http://www.w3.org/2000/svg" xmlns:xlink="http://www.w3.org/1999/xlink" x="0px" y="0px"
	 viewBox="0 0 11.111 16.018" style="enable-background:new 0 0 11.111 16.018;" xml:space="preserve">
<style type="text/css">
	.st0{fill:#7C7C7C;}
</style>
<path id="np_call_2960434_000000" class="st0" d="M10.572,12.436l-0.327-0.555c-0.6-1-1.421-2.124-2.516-2.124
	c-0.207-0.003-0.413,0.042-0.6,0.131L6.54,10.132c-0.056,0.024-0.11,0.051-0.163,0.082c-0.152,0.081-0.319,0.131-0.49,0.147
	c-0.425,0-0.931-0.555-1.406-1.569c-0.458-1-0.441-1.52-0.327-1.781C4.268,6.717,4.546,6.602,4.84,6.488
	c0.039-0.013,0.077-0.03,0.114-0.049l0.589-0.245c1.536-0.637,0.964-2.892,0.784-3.627L6.164,1.93C6.029,1.39,5.67,0,4.477,0
	c-0.241,0.004-0.478,0.054-0.7,0.147C2.479,0.648,1.37,1.54,0.604,2.7c-0.948,1.879-0.784,4.412,0.523,7.517
	c1.291,3.1,2.974,5,4.984,5.637c0.376,0.116,0.767,0.171,1.16,0.163c0.989-0.036,1.964-0.252,2.876-0.637
	c0.428-0.15,0.765-0.487,0.915-0.915c0.145-0.715-0.035-1.457-0.491-2.026L10.572,12.436z M10.049,14.119
	c-0.033,0.1-0.131,0.18-0.31,0.262H9.722c-0.773,0.326-1.597,0.513-2.434,0.555c-0.282,0.007-0.564-0.032-0.834-0.114
	c-1.7-0.539-3.153-2.238-4.33-5.033s-1.356-5.016-0.555-6.6c0.644-0.92,1.55-1.626,2.6-2.026h0.017
	C4.278,1.121,4.378,1.099,4.48,1.098c0.245,0,0.458,0.376,0.637,1.095L5.28,2.83c0.343,1.34,0.294,2.189-0.147,2.369L4.544,5.444
	C4.527,5.461,4.495,5.461,4.462,5.477C3.885,5.647,3.408,6.055,3.153,6.6C2.895,7.492,3.02,8.45,3.496,9.247
	c0.686,1.487,1.471,2.206,2.386,2.206c0.338-0.01,0.668-0.099,0.964-0.262c0.037-0.019,0.075-0.036,0.114-0.049l0.589-0.245
	c0.056-0.027,0.118-0.038,0.18-0.033c0.278,0,0.784,0.278,1.585,1.6l0.327,0.555C10.065,13.673,10.098,13.984,10.049,14.119z"/>
</svg>
