<?xml version="1.0" encoding="utf-8"?>
<!-- Generator: Adobe Illustrator 25.2.3, SVG Export Plug-In . SVG Version: 6.00 Build 0)  -->
<svg version="1.1" id="Layer_1" xmlns="http://www.w3.org/2000/svg" xmlns:xlink="http://www.w3.org/1999/xlink" x="0px" y="0px"
	 viewBox="0 0 19.125 19.077" style="enable-background:new 0 0 19.125 19.077;" xml:space="preserve">
<style type="text/css">
	.st0{fill-rule:evenodd;clip-rule:evenodd;fill:#FFFFFF;}
</style>
<path class="st0" d="M9.563,0C4.281,0,0,4.271,0,9.538c0,5.268,4.281,9.539,9.563,9.539c5.281,0,9.562-4.27,9.562-9.539
	C19.125,4.271,14.844,0,9.563,0z M9.674,15.117c-3.082,0-5.579-2.497-5.579-5.579c0-3.082,2.496-5.579,5.579-5.579
	c1.506,0,2.765,0.554,3.731,1.454l-1.573,1.573V6.983c-0.586-0.558-1.328-0.844-2.158-0.844c-1.841,0-3.337,1.555-3.337,3.396
	c0,1.841,1.496,3.399,3.337,3.399c1.67,0,2.807-0.955,3.04-2.266h-3.04V8.492h5.247c0.07,0.373,0.108,0.764,0.108,1.171
	C15.03,12.851,12.896,15.117,9.674,15.117z"/>
</svg>
