<?xml version="1.0" encoding="utf-8"?>
<!-- Generator: Adobe Illustrator 24.1.2, SVG Export Plug-In . SVG Version: 6.00 Build 0)  -->
<svg version="1.1" id="Layer_1" xmlns="http://www.w3.org/2000/svg" xmlns:xlink="http://www.w3.org/1999/xlink" x="0px" y="0px"
	 viewBox="0 0 30 30" style="enable-background:new 0 0 30 30;" xml:space="preserve">
<path d="M15,0C6.716,0,0,6.716,0,15s6.716,15,15,15s15-6.716,15-15c0-3.979-1.58-7.794-4.394-10.607C22.793,1.58,18.978,0,15,0z
	 M19.8,15.406L12.541,19.6c-0.225,0.128-0.512,0.048-0.639-0.177c-0.04-0.07-0.061-0.149-0.061-0.23v-8.384
	c0.001-0.259,0.211-0.468,0.47-0.468c0.081,0,0.16,0.021,0.23,0.061l7.259,4.192l0,0c0.224,0.129,0.301,0.415,0.172,0.639
	c-0.041,0.071-0.1,0.131-0.172,0.172V15.406z"/>
</svg>
