<?xml version="1.0" encoding="utf-8"?>
<!-- Generator: Adobe Illustrator 25.2.3, SVG Export Plug-In . SVG Version: 6.00 Build 0)  -->
<svg version="1.1" id="Layer_1" xmlns="http://www.w3.org/2000/svg" xmlns:xlink="http://www.w3.org/1999/xlink" x="0px" y="0px"
	 viewBox="0 0 20 20" style="enable-background:new 0 0 20 20;" xml:space="preserve">
<path d="M8.223,0C7.913,0.024,7.651,0.241,7.57,0.542L7.209,2.521C7.034,2.587,6.864,2.659,6.695,2.736L5.028,1.59
	C4.76,1.419,4.41,1.453,4.181,1.673L1.667,4.187C1.449,4.418,1.418,4.768,1.591,5.034l1.146,1.653
	c-0.076,0.168-0.143,0.34-0.208,0.514L0.55,7.562c-0.314,0.065-0.542,0.339-0.549,0.66v3.556c0.01,0.318,0.237,0.588,0.549,0.653
	l1.979,0.361c0.067,0.174,0.138,0.347,0.215,0.514l-1.153,1.652c-0.173,0.266-0.142,0.616,0.076,0.847l2.514,2.514
	c0.23,0.224,0.585,0.258,0.854,0.083l1.66-1.146c0.17,0.077,0.339,0.15,0.514,0.215L7.57,19.45c0.065,0.312,0.335,0.539,0.653,0.549
	h3.556c0.318-0.01,0.588-0.237,0.653-0.549l0.361-1.979c0.175-0.066,0.345-0.138,0.514-0.215l1.652,1.144
	c0.269,0.175,0.624,0.141,0.854-0.083l2.514-2.514c0.218-0.231,0.249-0.581,0.076-0.847l-1.146-1.653
	c0.076-0.165,0.143-0.336,0.208-0.507l1.986-0.368c0.311-0.064,0.538-0.333,0.549-0.65V8.222c-0.006-0.321-0.234-0.595-0.549-0.66
	L17.473,7.2c-0.064-0.172-0.14-0.34-0.215-0.507l1.146-1.66c0.173-0.266,0.142-0.616-0.076-0.847l-2.515-2.512
	c-0.232-0.221-0.586-0.253-0.854-0.076l-1.653,1.138c-0.169-0.077-0.339-0.149-0.514-0.215l-0.361-1.979
	C12.364,0.233,12.094,0.009,11.778,0H8.223z M8.779,1.333h2.444l0.326,1.785c0.047,0.24,0.219,0.436,0.451,0.514
	c0.373,0.118,0.736,0.269,1.083,0.451c0.22,0.112,0.483,0.096,0.688-0.042l1.493-1.035l1.729,1.729l-1.035,1.5
	c-0.138,0.205-0.154,0.468-0.042,0.688c0.177,0.343,0.324,0.7,0.438,1.069c0.077,0.236,0.277,0.412,0.521,0.458l1.792,0.326v2.444
	l-1.792,0.326c-0.244,0.046-0.444,0.222-0.521,0.458c-0.116,0.369-0.265,0.726-0.444,1.069c-0.112,0.22-0.096,0.483,0.042,0.688
	l1.042,1.493l-1.729,1.729l-1.493-1.028c-0.203-0.14-0.467-0.159-0.688-0.049c-0.347,0.183-0.71,0.335-1.084,0.455
	c-0.232,0.078-0.404,0.274-0.451,0.514l-0.326,1.792H8.778l-0.326-1.792c-0.047-0.24-0.22-0.436-0.452-0.514
	c-0.376-0.116-0.74-0.264-1.09-0.444c-0.22-0.112-0.483-0.096-0.688,0.042L4.73,16.986l-1.723-1.722l1.042-1.493
	c0.14-0.206,0.156-0.472,0.042-0.694C3.909,12.732,3.757,12.372,3.639,12c-0.077-0.236-0.277-0.412-0.521-0.458l-1.785-0.326V8.778
	l1.785-0.326C3.362,8.406,3.562,8.23,3.639,7.994c0.116-0.371,0.265-0.731,0.444-1.076c0.112-0.22,0.096-0.483-0.042-0.688L3,4.736
	l1.73-1.729l1.507,1.035C6.44,4.177,6.7,4.193,6.918,4.084C7.265,3.902,7.627,3.751,8,3.632c0.232-0.078,0.404-0.274,0.451-0.514
	L8.779,1.333z M10.001,5.333C7.423,5.332,5.334,7.421,5.333,9.999s2.088,4.667,4.666,4.668c2.578,0.001,4.667-2.088,4.668-4.666
	c0,0,0-0.001,0-0.001C14.661,7.425,12.575,5.339,10.001,5.333L10.001,5.333z M10.001,6.666c1.841,0.001,3.333,1.493,3.332,3.334
	c-0.001,1.841-1.493,3.333-3.334,3.332C8.159,13.331,6.668,11.84,6.667,10C6.661,8.165,8.145,6.673,9.98,6.667
	C9.987,6.667,9.993,6.667,10.001,6.666L10.001,6.666z"/>
</svg>
