<?xml version="1.0" encoding="utf-8"?>
<!-- Generator: Adobe Illustrator 24.1.2, SVG Export Plug-In . SVG Version: 6.00 Build 0)  -->
<svg version="1.1" id="Layer_1" xmlns="http://www.w3.org/2000/svg" xmlns:xlink="http://www.w3.org/1999/xlink" x="0px" y="0px"
	 viewBox="0 0 121.2 80.7" style="enable-background:new 0 0 121.2 80.7;" xml:space="preserve">
<style type="text/css">
	.st0{fill:#FFCC00;}
	.st1{fill:#FFFFFF;}
</style>
<rect class="st0" width="121.2" height="80.7"/>
<g>
	<g>
		<rect x="33.1" y="12.9" class="st1" width="55" height="55"/>
		<path class="st0" d="M42,59.1h13.8c0.3-14.9,8.3-22.9,23.3-23.4V21.9c-11,0.3-20.2,3.7-26.6,10C45.8,38.3,42.2,47.7,42,59.1z"/>
	</g>
	<g>
		<path class="st0" d="M79.1,56v3.1h-10V59l4-5.3c1.2-1.6,1.9-2.5,1.9-3.6c0-0.9-0.6-1.5-1.7-1.5c-1.4,0-2.9,1-3.7,1.7v-3.4
			c1-0.9,2.7-1.6,4.7-1.6c2.7,0,4.4,1.6,4.4,4.1c0,1.7-1,3.2-2.2,4.8L75.2,56H79.1z"/>
	</g>
</g>
</svg>
