<?xml version="1.0" encoding="utf-8"?>
<!-- Generator: Adobe Illustrator 25.2.3, SVG Export Plug-In . SVG Version: 6.00 Build 0)  -->
<svg version="1.1" id="Layer_1" xmlns="http://www.w3.org/2000/svg" xmlns:xlink="http://www.w3.org/1999/xlink" x="0px" y="0px"
	 viewBox="0 0 24 24" style="enable-background:new 0 0 24 24;" xml:space="preserve">
<style type="text/css">
	.st0{fill:#E00008;}
	.st1{fill:none;stroke:#E00008;stroke-linecap:round;stroke-linejoin:round;}
</style>
<g id="Group_445" transform="translate(-1931.265 -375.71)">
	<g id="Ellipse_75">
		<path class="st0" d="M1943.265,376.71c6.065,0,11,4.935,11,11s-4.935,11-11,11s-11-4.935-11-11S1937.2,376.71,1943.265,376.71
			 M1943.265,375.71c-6.627,0-12,5.373-12,12s5.373,12,12,12s12-5.373,12-12S1949.892,375.71,1943.265,375.71L1943.265,375.71z"/>
	</g>
	<g id="Group_439" transform="translate(610.747 -1041.935)">
		<line id="Line_105" class="st1" x1="1332.465" y1="1434.31" x2="1332.465" y2="1427.31"/>
		<line id="Line_106" class="st1" x1="1334.165" y1="1434.31" x2="1334.565" y2="1427.31"/>
		<line id="Line_107" class="st1" x1="1330.865" y1="1434.31" x2="1330.465" y2="1427.31"/>
		<path id="Path_2553" class="st1" d="M1330.065,1425.11v-1.4h4.8v1.4"/>
		<path id="Path_2554" class="st1" d="M1336.565,1427.31"/>
		<path id="Path_2555" class="st1" d="M1328.465,1427.31"/>
		<line id="Line_108" class="st1" x1="1336.665" y1="1425.11" x2="1328.365" y2="1425.11"/>
		<path id="Path_2556" class="st1" d="M1328.465,1427.31l0.6,8.3h7l0.6-8.3"/>
	</g>
</g>
</svg>
