<?xml version="1.0" encoding="utf-8"?>
<!-- Generator: Adobe Illustrator 25.2.3, SVG Export Plug-In . SVG Version: 6.00 Build 0)  -->
<svg version="1.1" id="Layer_1" xmlns="http://www.w3.org/2000/svg" xmlns:xlink="http://www.w3.org/1999/xlink" x="0px" y="0px"
	 viewBox="0 0 20 20" style="enable-background:new 0 0 20 20;" xml:space="preserve">
<style type="text/css">
	.st0{fill-rule:evenodd;clip-rule:evenodd;fill:#CACACA;}
</style>
<path class="st0" d="M10,17.427c-1.4,0-2.8-0.4-3.9-1.1c-0.2-0.1-0.4-0.1-0.5-0.1l-2.6,0.8l0.8-2.5c0.1-0.2,0-0.4-0.1-0.6
	c-0.8-1.2-1.3-2.6-1.3-4.1c0-0.2,0-0.5,0-0.7c0.4-3.8,3.6-6.8,7.5-6.8c4,0,7.3,3.1,7.6,6.9c0,0.2,0,0.4,0,0.6
	C17.5,14.028,14.1,17.427,10,17.427L10,17.427z M14.1,11.727c-0.2-0.1-1.3-0.6-1.5-0.7c-0.2-0.1-0.4-0.1-0.5,0.1
	c-0.1,0.2-0.6,0.7-0.7,0.8c-0.1,0.2-0.3,0.2-0.5,0.1c-0.2-0.1-0.9-0.3-1.8-1.1c-0.7-0.6-1.1-1.3-1.2-1.5c-0.1-0.2,0-0.3,0.1-0.5
	c0.1-0.1,0.2-0.2,0.3-0.4l0.1-0.1c0.1-0.1,0.1-0.2,0.1-0.3c0.1-0.2,0-0.3,0-0.4s-0.5-1.2-0.7-1.6c-0.2-0.4-0.4-0.4-0.5-0.4
	s-0.3,0-0.4,0c-0.2,0-0.4,0-0.6,0.3c-0.2,0.2-0.8,0.7-0.8,1.8c0,0.2,0,0.5,0.1,0.7c0.2,0.8,0.7,1.4,0.8,1.5c0.1,0.2,1.5,2.4,3.8,3.3
	c2.3,0.9,2.3,0.6,2.7,0.6s1.3-0.5,1.5-1s0.2-1,0.1-1C14.5,11.927,14.3,11.828,14.1,11.727L14.1,11.727z M19,9.727
	c-0.1-4.8-4.1-8.7-9-8.7c-4.8,0-8.8,3.8-9,8.5c0,0.1,0,0.3,0,0.4c0,1.6,0.4,3.1,1.1,4.4c0.1,0.2,0.1,0.4,0.1,0.5l-1.1,3.3
	c-0.2,0.5,0.3,1,0.8,0.8l3.5-1.1c0.2-0.1,0.3,0,0.5,0c1.2,0.6,2.6,1,4.1,1c5,0,9-4,9-8.9C19,9.828,19,9.727,19,9.727L19,9.727z"/>
</svg>
