<?xml version="1.0" encoding="utf-8"?>
<!-- Generator: Adobe Illustrator 25.2.3, SVG Export Plug-In . SVG Version: 6.00 Build 0)  -->
<svg version="1.1" id="Layer_1" xmlns="http://www.w3.org/2000/svg" xmlns:xlink="http://www.w3.org/1999/xlink" x="0px" y="0px"
	 viewBox="0 0 20 20" style="enable-background:new 0 0 20 20;" xml:space="preserve">
<style type="text/css">
	.st0{fill:#CACACA;}
	.st1{fill:#FFFFFF;}
</style>
<g>
	<path class="st0" d="M10,0.768c-5,0-9,3.8-9,8.5c0,2.4,1,4.5,2.7,6c0.1,0.1,0.2,0.3,0.2,0.4v3c0,0.4,0.5,0.7,0.9,0.5l2.6-1.6
		c0.1-0.1,0.3-0.1,0.4-0.1c0.7,0.2,1.5,0.3,2.2,0.3c5,0,9-3.8,9-8.5C18.9,4.568,14.9,0.768,10,0.768z"/>
	<path class="st1" d="M4.6,11.468l3.2-1.4c0.2-0.1,0.4,0,0.5,0.1l2.5,2.2c0.2,0.2,0.5,0.2,0.6,0l4.1-4.5c0.2-0.2,0-0.5-0.3-0.4
		l-3.2,1.4c-0.2,0.1-0.4,0-0.5-0.1L9,6.568c-0.2-0.2-0.5-0.2-0.6,0l-4.1,4.5C4.1,11.268,4.3,11.568,4.6,11.468z"/>
</g>
</svg>
