<?xml version="1.0" encoding="utf-8"?>
<!-- Generator: Adobe Illustrator 25.2.3, SVG Export Plug-In . SVG Version: 6.00 Build 0)  -->
<svg version="1.1" id="Layer_1" xmlns="http://www.w3.org/2000/svg" xmlns:xlink="http://www.w3.org/1999/xlink" x="0px" y="0px"
	 viewBox="0 0 14.545 22.083" style="enable-background:new 0 0 14.545 22.083;" xml:space="preserve">
<g transform="translate(-26.001 -14.199)">
	<path d="M33.154,29.189h0.267c2.097-0.004,3.796-1.703,3.8-3.8V18c-0.004-2.097-1.703-3.796-3.8-3.8h-0.267
		c-2.097,0.004-3.796,1.703-3.8,3.8v7.39c-0.006,2.092,1.685,3.793,3.777,3.799C33.139,29.189,33.146,29.189,33.154,29.189z
		 M31.433,18c0.001-0.951,0.77-1.721,1.721-1.723h0.267c0.951,0.001,1.721,0.772,1.722,1.723v7.39
		c-0.001,0.951-0.771,1.721-1.722,1.722h-0.267c-0.951-0.001-1.721-0.771-1.722-1.722L31.433,18z"/>
	<path d="M39.537,20.642c-0.569,0.008-1.029,0.468-1.037,1.037v3.3c0.04,2.657-1.885,4.937-4.511,5.343
		c-2.852,0.384-5.476-1.616-5.86-4.468c-0.031-0.231-0.047-0.463-0.047-0.696v-3.479c0-0.574-0.465-1.039-1.039-1.039
		c-0.574,0-1.039,0.465-1.039,1.039v3.473c0,3.029,1.881,5.74,4.719,6.8c0.896,0.316,1.501,1.158,1.514,2.108v0.148H29.5
		c-0.574,0.001-1.039,0.466-1.038,1.04c0.001,0.573,0.465,1.037,1.038,1.038h7.539c0.574,0.001,1.039-0.464,1.04-1.038
		s-0.464-1.039-1.038-1.04c-0.001,0-0.001,0-0.002,0h-2.727V34.06c0.014-0.95,0.618-1.792,1.514-2.108
		c2.838-1.059,4.72-3.77,4.719-6.8v-3.473c0.017-0.556-0.421-1.02-0.977-1.037C39.558,20.642,39.547,20.642,39.537,20.642
		L39.537,20.642z"/>
</g>
</svg>
