<?xml version="1.0" encoding="utf-8"?>
<!-- Generator: Adobe Illustrator 25.2.3, SVG Export Plug-In . SVG Version: 6.00 Build 0)  -->
<svg version="1.1" id="Layer_1" xmlns="http://www.w3.org/2000/svg" xmlns:xlink="http://www.w3.org/1999/xlink" x="0px" y="0px"
	 viewBox="0 0 78 78" style="enable-background:new 0 0 78 78;" xml:space="preserve">
<style type="text/css">
	.st0{fill:#FF99FF;}
	.st1{opacity:0.64;clip-path:url(#SVGID_2_);}
	.st2{fill:#BF92BF;}
	.st3{enable-background:new    ;}
	.st4{fill:#FFFFFF;}
</style>
<g>
	<g id="Group_52_00000140697855245222865310000011220626611794995621_" transform="translate(181.261 181.264)">
		
			<rect id="Rectangle_1476_00000127021095594866300900000010292590503564254115_" x="-181.2" y="-181.264" class="st0" width="77.939" height="77.964"/>
	</g>
	<g>
		<g>
			<defs>
				<rect id="SVGID_1_" y="0.036" width="77.939" height="77.964"/>
			</defs>
			<clipPath id="SVGID_2_">
				<use xlink:href="#SVGID_1_"  style="overflow:visible;"/>
			</clipPath>
			<g class="st1">
				<path class="st2" d="M78.039,37.719l-21.683-21.89l-8.094,5.797c2.698,1.999,4.696,3.798,5.496,4.698
					C62.151,34.72,64.15,43.216,64.05,49.213c0,5.697-1.998,13.394-9.293,20.59c-7.594,7.497-15.688,9.596-21.883,9.596
					c-11.891,0.1-20.584-6.597-26.679-12.694C-3.098,57.21-7.194,48.114-9.093,39.818L8.693,27.024
					c0.3,6.297,1.799,11.095,2.398,12.694c1.499,4.198,4.097,8.496,7.194,11.595c3.297,3.298,7.394,5.198,11.291,5.198
					c2.898-0.1,6.195-1.299,8.893-3.898c3.297-3.298,3.997-7.197,3.797-9.795c-0.3-6.397-6.095-12.394-8.094-14.493
					c-4.397-4.498-9.093-7.297-14.189-8.996L59.454-8.96l32.575,32.885L78.039,37.719z"/>
			</g>
		</g>
	</g>
	<g class="st3">
		<path class="st4" d="M10.392,55.211c1.399,0,2.198,0.4,2.598,0.8c0.799,0.7,0.999,1.499,0.999,2.299c0,1-0.4,1.899-1.199,2.399
			c-0.3,0.2-0.6,0.4-1.099,0.4l3.198,4.398H12.39l-2.798-4.198h-0.2v4.198H7.394V55.211H10.392z M9.393,60.008h0.6
			c0.4,0,1.998,0,1.998-1.599c0-1.499-1.599-1.499-1.998-1.499h-0.6V60.008z"/>
		<path class="st4" d="M15.288,56.01h3.797v1.199h-3.797V56.01z M18.086,58.909v6.697h-1.899v-6.697
			C16.187,58.909,18.086,58.909,18.086,58.909z"/>
		<path class="st4" d="M21.883,60.508v5.098h-1.899v-5.098h-0.699v-1.599h0.699V56.61h1.899v2.299h1.299v1.599H21.883z"/>
		<path class="st4" d="M29.477,58.909h1.899v6.697h-1.899v-0.9c-0.699,1-1.599,1.099-2.098,1.099c-2.098,0-3.397-1.599-3.397-3.598
			c0-1.999,1.299-3.598,3.297-3.598c0.5,0,1.499,0.1,2.198,1.099V58.909z M25.98,62.207c0,1.099,0.799,1.899,1.899,1.899
			s1.899-0.8,1.899-1.899s-0.899-1.899-1.899-1.899S25.98,61.108,25.98,62.207z"/>
		<path class="st4" d="M37.071,58.909h1.899v1c0.3-0.6,0.699-0.9,0.799-0.9c0.3-0.2,0.699-0.3,1.099-0.3c0.3,0,0.6,0.1,0.799,0.2
			l-0.2,1.799c-0.2-0.2-0.5-0.2-0.899-0.2c-0.4,0-0.899,0.1-1.299,0.5c-0.4,0.4-0.4,1-0.4,1.499v3.199h-1.899v-6.797H37.071z"/>
		<path class="st4" d="M47.863,58.909h1.899v6.697h-1.899v-0.9c-0.699,1-1.599,1.099-2.098,1.099c-2.098,0-3.397-1.599-3.397-3.598
			c0-1.999,1.299-3.598,3.297-3.598c0.5,0,1.499,0.1,2.198,1.099V58.909z M44.265,62.207c0,1.099,0.799,1.899,1.899,1.899
			c1.099,0,1.899-0.8,1.899-1.899s-0.799-1.899-1.899-1.899C45.065,60.308,44.265,61.108,44.265,62.207z"/>
		<path class="st4" d="M56.756,54.311h1.899v11.295h-1.899v-0.9c-0.699,1-1.599,1.099-2.098,1.099c-2.098,0-3.397-1.599-3.397-3.598
			c0-1.999,1.299-3.598,3.297-3.598c0.5,0,1.499,0.1,2.198,1.099V54.311z M53.258,62.207c0,1.099,0.799,1.899,1.899,1.899
			s1.899-0.8,1.899-1.899s-0.799-1.899-1.899-1.899S53.258,61.108,53.258,62.207z"/>
		<path class="st4" d="M61.552,54.911c0.6,0,1.099,0.5,1.099,1.099c0,0.6-0.5,1.099-1.099,1.099s-1.099-0.5-1.099-1.099
			C60.453,55.41,60.952,54.911,61.552,54.911z M62.551,58.909v6.697h-1.899v-6.697C60.653,58.909,62.551,58.909,62.551,58.909z"/>
		<path class="st4" d="M70.745,59.608c0.699,0.6,1.099,1.499,1.099,2.599s-0.5,1.999-1.099,2.599c-0.6,0.5-1.399,0.9-2.698,0.9
			c-1.299,0-2.098-0.4-2.698-0.9c-0.699-0.6-1.099-1.499-1.099-2.599s0.5-1.999,1.099-2.599c0.6-0.5,1.399-0.9,2.698-0.9
			C69.246,58.709,70.145,59.109,70.745,59.608z M69.845,62.207c0-1.099-0.799-1.899-1.899-1.899c-1.099,0-1.899,0.9-1.899,1.899
			c0,1,0.799,1.899,1.899,1.899C69.046,64.106,69.845,63.307,69.845,62.207z"/>
	</g>
</g>
</svg>
