<?xml version="1.0" encoding="utf-8"?>
<!-- Generator: Adobe Illustrator 25.2.3, SVG Export Plug-In . SVG Version: 6.00 Build 0)  -->
<svg version="1.1" id="Layer_1" xmlns="http://www.w3.org/2000/svg" xmlns:xlink="http://www.w3.org/1999/xlink" x="0px" y="0px"
	 viewBox="0 0 121.2 80.7" style="enable-background:new 0 0 121.2 80.7;" xml:space="preserve">
<style type="text/css">
	.st0{fill:#7CB010;}
	.st1{fill:#FFFFFF;}
</style>
<rect class="st0" width="121.2" height="80.7"/>
<g>
	<path class="st1" d="M69.8,31.3c0.8,0,1.6,0.4,2.3,1.1l1.1-1.2c-1-1-2.2-1.5-3.5-1.5s-2.5,0.5-3.5,1.5l1.1,1.2
		C68.1,31.6,68.9,31.3,69.8,31.3z"/>
	<path class="st1" d="M47.4,31.2l1.1,1.2c0.7-0.7,1.5-1.1,2.3-1.1s1.6,0.4,2.3,1.1l1.1-1.2c-1-1-2.2-1.5-3.5-1.5
		C49.6,29.6,48.4,30.2,47.4,31.2z"/>
	<path class="st1" d="M33.1,13v54.9H88V13H33.1z M60,44.6c-2.3,8-9.5,14.3-17.9,14.3V49c2.2,0,4.5,1,6.5,2.7l1-1.3
		c-2.3-2.2-4.9-3.3-7.5-3.4V22h17.5l-3.8,22.3h4.1v0.3H60z M79,39.2L79,39.2c0,0.3,0,0.7,0,1c0,9.9-7.3,18-17,18.6v-7.3
		c2.6,0,5.2-1.2,7.6-3.4l-1-1.3c-2,1.7-4.3,2.6-6.6,2.6v-7h-3.8L61.7,22h17.4v17.2H79z"/>
</g>
</svg>
