<?xml version="1.0" encoding="utf-8"?>
<!-- Generator: Adobe Illustrator 24.1.2, SVG Export Plug-In . SVG Version: 6.00 Build 0)  -->
<svg version="1.1" id="Layer_1" xmlns="http://www.w3.org/2000/svg" xmlns:xlink="http://www.w3.org/1999/xlink" x="0px" y="0px"
	 viewBox="0 0 121.2 80.7" style="enable-background:new 0 0 121.2 80.7;" xml:space="preserve">
<style type="text/css">
	.st0{fill:#FFFFFF;}
</style>
<rect width="121.2" height="80.7"/>
<path class="st0" d="M33.1,12.9v55h55v-55H33.1z M79.1,45.5l-2.7,5.3c1.7,0.7,2.6,2,2.6,3.8c0,2.9-2.3,4.6-5,4.6
	c-1.9,0-3.1-0.5-4-1.2v-3.3c1.1,1,2.4,1.5,3.7,1.5s2.1-0.6,2.1-1.7c0-1.5-1.6-2-3.4-1.9v-0.1l2.1-4.2h-4.4v-3.1L79.1,45.5L79.1,45.5
	z M79.1,35.6c-15,0.5-23,8.6-23.3,23.4H42c0.2-11.3,3.8-20.7,10.5-27.2c6.5-6.3,15.6-9.7,26.6-10V35.6z"/>
</svg>
