<?xml version="1.0" encoding="utf-8"?>
<!-- Generator: Adobe Illustrator 24.1.2, SVG Export Plug-In . SVG Version: 6.00 Build 0)  -->
<svg version="1.1" id="Layer_1" xmlns="http://www.w3.org/2000/svg" xmlns:xlink="http://www.w3.org/1999/xlink" x="0px" y="0px"
	 viewBox="0 0 121.2 80.7" style="enable-background:new 0 0 121.2 80.7;" xml:space="preserve">
<style type="text/css">
	.st0{fill:#BDBFC1;}
	.st1{fill:#FFFFFF;}
</style>
<rect class="st0" width="121.2" height="80.7"/>
<g>
	<rect x="33.1" y="12.8" class="st1" width="55" height="55"/>
	<path class="st0" d="M42.1,59h13.8c0.3-14.9,8.3-22.9,23.3-23.4V21.8c-11,0.3-20.2,3.7-26.6,10C45.9,38.3,42.2,47.7,42.1,59z"/>
	<path class="st0" d="M68.8,54c0-1.2,0.4-2.2,1.3-3.8l2.9-4.9h3.8l-2.3,4.1c0.1,0,0.2,0,0.3,0c2.7,0.2,4.4,2.2,4.4,4.7
		c0,2.9-2.2,5.1-5.2,5.1C71,59,68.8,56.9,68.8,54z M73.9,52c-1.1,0-1.9,0.9-1.9,2s0.8,2,1.9,2c1.2,0,2-0.8,2-2
		C75.9,52.9,75.1,52,73.9,52z"/>
</g>
</svg>
