<?xml version="1.0" encoding="utf-8"?>
<!-- Generator: Adobe Illustrator 25.4.1, SVG Export Plug-In . SVG Version: 6.00 Build 0)  -->
<svg version="1.1" id="Layer_1" xmlns="http://www.w3.org/2000/svg" xmlns:xlink="http://www.w3.org/1999/xlink" x="0px" y="0px"
	 viewBox="0 0 78 78" style="enable-background:new 0 0 78 78;" xml:space="preserve">
<style type="text/css">
	.st0{fill:#FFFFFF;}
</style>
<g id="Group_54" transform="translate(-181.261 -181.264)">
	<g id="Group_52" transform="translate(181.261 181.264)">
		<rect id="Rectangle_1476" width="78" height="78"/>
		<path id="Path_2277" class="st0" d="M12.7,65.5h19.6C32.7,44.4,44.1,33,65.3,32.3V12.7C49.8,13.1,36.7,18,27.6,26.9
			C18.1,36.1,13,49.5,12.7,65.5z"/>
	</g>
	<g id="Group_53" transform="translate(233.662 227.493)">
		<path id="Path_2278" class="st0" d="M0.1,0h12.8v0.1L9.1,7.6c2.3,0.8,3.8,3,3.7,5.4c0,4.1-3.2,6.6-7.1,6.6c-2,0.1-4.1-0.5-5.7-1.6
			v-4.6c1.4,1.3,3.3,2.1,5.2,2.1c1.9,0,3-0.8,3-2.4c0-2.1-2.2-2.9-4.8-2.7v-0.1l3-5.9H0.1L0.1,0L0.1,0z"/>
	</g>
</g>
</svg>
