<?xml version="1.0" encoding="utf-8"?>
<!-- Generator: Adobe Illustrator 25.2.3, SVG Export Plug-In . SVG Version: 6.00 Build 0)  -->
<svg version="1.1" id="Layer_1" xmlns="http://www.w3.org/2000/svg" xmlns:xlink="http://www.w3.org/1999/xlink" x="0px" y="0px"
	 viewBox="0 0 78 78" style="enable-background:new 0 0 78 78;" xml:space="preserve">
<style type="text/css">
	.st0{fill:#988977;}
	.st1{clip-path:url(#SVGID_2_);}
	.st2{fill:#BF92BF;}
	.st3{enable-background:new    ;}
	.st4{fill:#FFFFFF;}
</style>
<g>
	<g id="Group_52_00000168109680672987006350000005214416484916131217_" transform="translate(181.261 181.264)">
		
			<rect id="Rectangle_1476_00000132064634015156809940000006677414721883084478_" x="-181.2" y="-181.264" class="st0" width="77.939" height="77.964"/>
	</g>
	<g>
		<g>
			<defs>
				<rect id="SVGID_1_" y="0.036" width="77.939" height="77.964"/>
			</defs>
			<clipPath id="SVGID_2_">
				<use xlink:href="#SVGID_1_"  style="overflow:visible;"/>
			</clipPath>
			<g class="st1">
				<path class="st2" d="M78.039,37.719l-21.683-21.89l-8.094,5.797c2.698,1.999,4.696,3.798,5.496,4.698
					C62.151,34.72,64.15,43.216,64.05,49.213c0,5.697-1.998,13.394-9.293,20.59c-7.594,7.497-15.688,9.596-21.883,9.596
					c-11.891,0.1-20.584-6.597-26.679-12.694C-3.098,57.21-7.194,48.114-9.093,39.818L8.693,27.024
					c0.3,6.297,1.799,11.095,2.398,12.694c1.499,4.198,4.097,8.496,7.194,11.595c3.297,3.298,7.394,5.198,11.291,5.198
					c2.898-0.1,6.195-1.299,8.893-3.898c3.297-3.298,3.997-7.197,3.797-9.795c-0.3-6.397-6.095-12.394-8.094-14.493
					c-4.397-4.498-9.093-7.297-14.189-8.996L59.454-8.96l32.575,32.885L78.039,37.719z"/>
			</g>
		</g>
	</g>
	<g class="st3">
		<path class="st4" d="M10.392,40.317c1.199,0,1.998,0.1,2.698,0.8c0.799,0.7,1.099,1.799,1.099,2.499c0,0.4-0.1,1.499-0.899,2.299
			c-0.6,0.6-1.399,0.9-2.598,0.9H9.393v3.798H7.394V40.317H10.392z M9.393,45.015h0.799c0.4,0,0.899,0,1.299-0.3
			c0.4-0.3,0.6-0.8,0.6-1.199c0-0.6-0.3-1-0.6-1.199c-0.3-0.3-0.899-0.3-1.399-0.3H9.393V45.015z"/>
		<path class="st4" d="M16.787,39.918c0.6,0,1.099,0.5,1.099,1.099s-0.5,1.099-1.099,1.099c-0.6,0-1.099-0.5-1.099-1.099
			S16.087,39.918,16.787,39.918z M17.686,43.916v6.697h-1.899v-6.697H17.686z"/>
		<path class="st4" d="M26.479,48.714c-0.2,0.5-0.999,2.099-3.297,2.099c-1.099,0-1.899-0.3-2.598-0.9
			c-0.699-0.7-1.099-1.599-1.099-2.599c0-1.299,0.5-2.199,0.999-2.599c0.799-0.8,1.699-0.9,2.498-0.9c1.399,0,2.198,0.5,2.598,1.099
			c0.699,0.9,0.799,1.899,0.799,2.599v0.2h-4.996c0,0.4,0.1,0.8,0.3,1.099s0.6,0.6,1.299,0.6c0.699,0,1.299-0.3,1.599-0.9
			L26.479,48.714z M24.681,46.315c-0.2-0.9-0.899-1.299-1.599-1.299c-0.699,0-1.399,0.4-1.599,1.299H24.681z"/>
		<path class="st4" d="M33.374,45.915c-0.4-0.4-0.899-0.6-1.599-0.6c-1.299,0-1.899,0.9-1.899,1.899
			c0,1.099,0.799,1.899,1.998,1.899c0.4,0,0.999-0.1,1.499-0.6v1.799c-0.4,0.2-0.999,0.4-1.699,0.4c-1.099,0-1.998-0.4-2.598-1
			c-0.5-0.5-1.099-1.299-1.099-2.599c0-1.199,0.5-2.099,1.199-2.699c0.799-0.7,1.799-0.9,2.398-0.9c0.699,0,1.299,0.1,1.799,0.4
			C33.374,43.916,33.374,45.915,33.374,45.915z"/>
		<path class="st4" d="M36.172,39.918c0.6,0,1.099,0.5,1.099,1.099s-0.5,1.099-1.099,1.099s-1.099-0.5-1.099-1.099
			S35.572,39.918,36.172,39.918z M37.071,43.916v6.697h-1.899v-6.697H37.071z"/>
		<path class="st4" d="M8.993,54.311v11.295H7.094V54.311H8.993z"/>
		<path class="st4" d="M16.387,58.909h1.899v6.697h-1.899v-0.9c-0.699,1-1.599,1.099-2.098,1.099c-2.098,0-3.397-1.599-3.397-3.598
			c0-1.999,1.299-3.598,3.297-3.598c0.5,0,1.499,0.1,2.198,1.099V58.909z M12.79,62.207c0,1.099,0.799,1.899,1.899,1.899
			c1.099,0,1.899-0.8,1.899-1.899s-0.799-1.899-1.899-1.899C13.589,60.308,12.79,61.208,12.79,62.207z"/>
		<path class="st4" d="M22.283,60.508v5.098h-1.899v-5.098h-0.699v-1.599h0.699V56.61h1.899v2.299h1.299v1.599H22.283z"/>
		<path class="st4" d="M26.579,58.909l1.799,3.798l1.799-3.798h2.098l-3.397,6.697h-0.999l-3.397-6.697
			C24.481,58.909,26.579,58.909,26.579,58.909z"/>
		<path class="st4" d="M34.473,54.911c0.6,0,1.099,0.5,1.099,1.099c0,0.6-0.5,1.099-1.099,1.099s-1.099-0.5-1.099-1.099
			C33.374,55.41,33.874,54.911,34.473,54.911z M35.372,58.909v6.697h-1.899v-6.697C33.474,58.909,35.372,58.909,35.372,58.909z"/>
		<path class="st4" d="M44.165,63.707c-0.2,0.5-0.999,2.099-3.297,2.099c-1.099,0-1.899-0.3-2.598-0.9
			c-0.699-0.7-1.099-1.599-1.099-2.599c0-1.299,0.5-2.199,0.999-2.599c0.799-0.8,1.699-0.9,2.498-0.9c1.399,0,2.198,0.5,2.598,1.099
			c0.699,0.9,0.799,1.899,0.799,2.599v0.2h-4.996c0,0.4,0.1,0.8,0.3,1.099c0.2,0.3,0.6,0.6,1.299,0.6c0.699,0,1.299-0.3,1.599-0.9
			L44.165,63.707z M42.467,61.308c-0.2-0.9-0.899-1.299-1.599-1.299s-1.399,0.4-1.599,1.299H42.467z"/>
		<path class="st4" d="M49.761,60.508c-0.5-0.4-0.899-0.5-1.099-0.5c-0.4,0-0.699,0.2-0.699,0.5c0,0.2,0.1,0.4,0.6,0.6l0.5,0.1
			c0.5,0.2,1.299,0.4,1.699,1c0.2,0.3,0.3,0.7,0.3,1.099c0,0.6-0.2,1.199-0.699,1.699s-1.199,0.7-1.998,0.7
			c-1.399,0-2.198-0.7-2.598-1.099l0.999-1.099c0.4,0.4,0.899,0.8,1.499,0.8c0.5,0,0.899-0.3,0.899-0.7c0-0.4-0.3-0.6-0.6-0.7
			l-0.4-0.2c-0.5-0.2-0.999-0.4-1.399-0.8c-0.3-0.3-0.5-0.7-0.5-1.299c0-0.7,0.3-1.199,0.699-1.499c0.5-0.4,1.199-0.5,1.799-0.5
			c0.5,0,1.299,0.1,2.098,0.7L49.761,60.508z M50.161,54.611l0.899,0.9l-2.598,2.099l-2.598-2.099l0.899-0.9l1.699,1.399
			L50.161,54.611z"/>
		<path class="st4" d="M53.658,54.911c0.6,0,1.099,0.5,1.099,1.099c0,0.6-0.5,1.099-1.099,1.099s-1.099-0.5-1.099-1.099
			C52.559,55.41,53.059,54.911,53.658,54.911z M54.557,58.909v6.697h-1.899v-6.697C52.659,58.909,54.557,58.909,54.557,58.909z"/>
	</g>
</g>
</svg>
