<?xml version="1.0" encoding="utf-8"?>
<!-- Generator: Adobe Illustrator 25.4.1, SVG Export Plug-In . SVG Version: 6.00 Build 0)  -->
<svg version="1.1" id="Layer_1" xmlns="http://www.w3.org/2000/svg" xmlns:xlink="http://www.w3.org/1999/xlink" x="0px" y="0px"
	 viewBox="0 0 78 78" style="enable-background:new 0 0 78 78;" xml:space="preserve">
<style type="text/css">
	.st0{fill:#BDBFC1;}
	.st1{fill:#FFFFFF;}
</style>
<g id="Group_206">
	<rect id="Rectangle_1571" x="0" class="st0" width="78" height="78"/>
	<path id="Path_2438" class="st1" d="M12.7,65.5h19.6C32.7,44.4,44.1,33,65.3,32.3V12.7C49.8,13.1,36.7,18,27.6,26.9
		C18.1,36.1,13,49.5,12.7,65.5z"/>
</g>
<g id="Group_207" transform="translate(50.562 45.917)">
	<path id="Path_2439" d="M0,12.4C0,10.8,0.5,9.3,1.9,7l4.1-7h5.4L8,5.8c0.2,0,0.3-0.1,0.5-0.1c3.6,0.2,6.3,3.1,6.3,6.7
		c-0.1,4.1-3.6,7.2-7.6,7.1C3.2,19.4,0.1,16.3,0,12.4L0,12.4z M7.3,9.6c-1.5,0-2.8,1.2-2.8,2.8c0,0,0,0,0,0.1c0,1.5,1.2,2.8,2.7,2.8
		s2.8-1.2,2.8-2.7c0,0,0-0.1,0-0.1c0-1.5-1.2-2.8-2.7-2.8C7.4,9.6,7.4,9.6,7.3,9.6L7.3,9.6z"/>
</g>
</svg>
