<?xml version="1.0" encoding="utf-8"?>
<!-- Generator: Adobe Illustrator 25.2.3, SVG Export Plug-In . SVG Version: 6.00 Build 0)  -->
<svg version="1.1" id="Layer_1" xmlns="http://www.w3.org/2000/svg" xmlns:xlink="http://www.w3.org/1999/xlink" x="0px" y="0px"
	 viewBox="0 0 78 78" style="enable-background:new 0 0 78 78;" xml:space="preserve">
<style type="text/css">
	.st0{fill:#7CB010;}
	.st1{fill:#FFFFFF;}
</style>
<g>
	<rect class="st0" width="78" height="78"/>
	<g>
		<path class="st1" d="M65.2,12.8H40.5l-4.9,28.9H41v10c3.2,0.1,6.5-1.1,9.3-3.6l1.4,1.9c-3.3,3.1-7,4.7-10.7,4.8v10.4
			c13.8-0.9,24.2-12.4,24.2-26.5c0-0.5,0-1,0-1.4l0,0V12.8z M55.4,27.5c-1-1-2.1-1.5-3.3-1.5s-2.3,0.5-3.3,1.5l-1.6-1.6
			c1.4-1.4,3.2-2.2,4.9-2.2c1.8,0,3.5,0.8,4.9,2.2L55.4,27.5z"/>
		<path class="st1" d="M32.3,44.5l5.4-31.7H12.8v35.5c3.7,0.1,7.4,1.7,10.6,4.8L22,55c-2.8-2.5-6-3.9-9.2-3.9v14.1
			c12,0,22.1-9,25.4-20.3v-0.4L32.3,44.5z M28.6,27.5c-1-1-2.1-1.5-3.3-1.5S23,26.5,22,27.5l-1.6-1.6c1.4-1.4,3.2-2.2,4.9-2.2
			c1.8,0,3.5,0.8,4.9,2.2L28.6,27.5z"/>
	</g>
</g>
</svg>
