<?xml version="1.0" encoding="utf-8"?>
<!-- Generator: Adobe Illustrator 25.4.1, SVG Export Plug-In . SVG Version: 6.00 Build 0)  -->
<svg version="1.1" id="Layer_1" xmlns="http://www.w3.org/2000/svg" xmlns:xlink="http://www.w3.org/1999/xlink" x="0px" y="0px"
	 viewBox="0 0 78 78" style="enable-background:new 0 0 78 78;" xml:space="preserve">
<style type="text/css">
	.st0{fill:#9464FA;}
	.st1{fill:#FFFFFF;}
</style>
<g id="Group_73" transform="translate(-181.261 -181.264)">
	<g id="Group_72" transform="translate(181.261 181.264)">
		<rect id="Rectangle_1481" class="st0" width="78" height="78"/>
		<path id="Path_2328" class="st1" d="M12.7,65.2h19.5c0.4-21,11.8-32.4,32.9-33.1V12.7c-15.5,0.4-28.4,5.3-37.5,14.1
			C18,36,12.9,49.2,12.7,65.2z"/>
	</g>
	<path id="Path_2329" d="M246.3,240c0,4-3.2,6.5-7.4,6.5c-2,0-3.9-0.5-5.5-1.6v-4.5c1.4,1.3,3.2,2,5.1,2.1c1.8,0,3.2-0.8,3.2-2.4
		c0-1.7-1.4-2.5-3.4-2.5c-1.5,0-2.9,0.2-4.3,0.8V227h11.3v4.3h-7.4v2.4c0.5-0.1,1-0.1,1.4-0.1C243.3,233.6,246.3,236,246.3,240"/>
</g>
</svg>
