<?xml version="1.0" encoding="utf-8"?>
<!-- Generator: Adobe Illustrator 25.2.3, SVG Export Plug-In . SVG Version: 6.00 Build 0)  -->
<svg version="1.1" id="Layer_1" xmlns="http://www.w3.org/2000/svg" xmlns:xlink="http://www.w3.org/1999/xlink" x="0px" y="0px"
	 viewBox="0 0 78 78" style="enable-background:new 0 0 78 78;" xml:space="preserve">
<style type="text/css">
	.st0{fill:#B495C3;}
	.st1{opacity:0.5;clip-path:url(#SVGID_2_);}
	.st2{fill:#877092;}
	.st3{enable-background:new    ;}
	.st4{fill:#FFFFFF;}
</style>
<g>
	<g id="Group_52_00000079479805552752101080000011230226328123467426_" transform="translate(181.261 181.264)">
		
			<rect id="Rectangle_1476_00000130610525463730029580000004035356914901154977_" x="-181.2" y="-181.264" class="st0" width="77.939" height="77.964"/>
	</g>
	<g>
		<g>
			<defs>
				<rect id="SVGID_1_" y="0.036" width="77.939" height="77.964"/>
			</defs>
			<clipPath id="SVGID_2_">
				<use xlink:href="#SVGID_1_"  style="overflow:visible;"/>
			</clipPath>
			<g class="st1">
				<path class="st2" d="M78.039,37.719l-21.683-21.89l-8.094,5.797c2.698,1.999,4.696,3.798,5.496,4.698
					C62.151,34.72,64.15,43.216,64.05,49.213c0,5.697-1.998,13.394-9.293,20.59c-7.594,7.497-15.688,9.596-21.883,9.596
					c-11.891,0.1-20.584-6.597-26.679-12.694C-3.098,57.21-7.194,48.114-9.093,39.818L8.693,27.024
					c0.3,6.297,1.799,11.095,2.398,12.694c1.499,4.198,4.097,8.496,7.194,11.595c3.297,3.298,7.394,5.198,11.291,5.198
					c2.898-0.1,6.195-1.299,8.893-3.898c3.297-3.298,3.997-7.197,3.797-9.795c-0.3-6.397-6.095-12.394-8.094-14.493
					c-4.397-4.498-9.093-7.297-14.189-8.996L59.454-8.96l32.575,32.885L78.039,37.719z"/>
			</g>
		</g>
	</g>
	<g class="st3">
		<path class="st4" d="M10.392,40.317c1.199,0,1.998,0.1,2.698,0.8c0.799,0.7,1.099,1.799,1.099,2.499c0,0.4-0.1,1.499-0.899,2.299
			c-0.6,0.6-1.399,0.9-2.598,0.9H9.393v3.798H7.394V40.317H10.392z M9.393,45.015h0.799c0.4,0,0.899,0,1.299-0.3
			c0.4-0.3,0.6-0.8,0.6-1.199c0-0.6-0.3-1-0.6-1.199c-0.3-0.3-0.899-0.3-1.399-0.3H9.393V45.015z"/>
		<path class="st4" d="M16.787,39.918c0.6,0,1.099,0.5,1.099,1.099s-0.5,1.099-1.099,1.099c-0.6,0-1.099-0.5-1.099-1.099
			S16.087,39.918,16.787,39.918z M17.686,43.916v6.697h-1.899v-6.697H17.686z"/>
		<path class="st4" d="M26.479,48.714c-0.2,0.5-0.999,2.099-3.297,2.099c-1.099,0-1.899-0.3-2.598-0.9
			c-0.699-0.7-1.099-1.599-1.099-2.599c0-1.299,0.5-2.199,0.999-2.599c0.799-0.8,1.699-0.9,2.498-0.9c1.399,0,2.198,0.5,2.598,1.099
			c0.699,0.9,0.799,1.899,0.799,2.599v0.2h-4.996c0,0.4,0.1,0.8,0.3,1.099s0.6,0.6,1.299,0.6c0.699,0,1.299-0.3,1.599-0.9
			L26.479,48.714z M24.681,46.315c-0.2-0.9-0.899-1.299-1.599-1.299c-0.699,0-1.399,0.4-1.599,1.299H24.681z"/>
		<path class="st4" d="M33.374,45.915c-0.4-0.4-0.899-0.6-1.599-0.6c-1.299,0-1.899,0.9-1.899,1.899
			c0,1.099,0.799,1.899,1.998,1.899c0.4,0,0.999-0.1,1.499-0.6v1.799c-0.4,0.2-0.999,0.4-1.699,0.4c-1.099,0-1.998-0.4-2.598-1
			c-0.5-0.5-1.099-1.299-1.099-2.599c0-1.199,0.5-2.099,1.199-2.699c0.799-0.7,1.799-0.9,2.398-0.9c0.699,0,1.299,0.1,1.799,0.4
			C33.374,43.916,33.374,45.915,33.374,45.915z"/>
		<path class="st4" d="M36.172,39.918c0.6,0,1.099,0.5,1.099,1.099s-0.5,1.099-1.099,1.099s-1.099-0.5-1.099-1.099
			S35.572,39.918,36.172,39.918z M37.071,43.916v6.697h-1.899v-6.697H37.071z"/>
		<path class="st4" d="M12.29,58.909h1.899v6.697H12.29v-0.9c-0.699,1-1.599,1.099-2.098,1.099c-2.098,0-3.397-1.599-3.397-3.598
			c0-1.999,1.299-3.598,3.297-3.598c0.5,0,1.499,0.1,2.198,1.099V58.909z M8.793,62.207c0,1.099,0.799,1.899,1.899,1.899
			s1.899-0.8,1.899-1.899s-0.799-1.899-1.899-1.899S8.793,61.208,8.793,62.207z"/>
		<path class="st4" d="M18.286,60.508v5.098h-1.899v-5.098h-0.699v-1.599h0.699V56.61h1.899v2.299h1.299v1.599H18.286z"/>
		<path class="st4" d="M22.782,54.311v6.997l2.498-2.399h2.398l-3.098,2.899l3.397,3.798H25.48l-2.498-2.899l-0.2,0.2v2.699h-1.899
			V54.311H22.782z"/>
		<path class="st4" d="M31.176,54.311v11.295h-1.899V54.311H31.176z"/>
		<path class="st4" d="M38.47,58.909h1.899v6.697H38.47v-0.9c-0.699,1-1.599,1.099-2.098,1.099c-2.098,0-3.397-1.599-3.397-3.598
			c0-1.999,1.299-3.598,3.297-3.598c0.5,0,1.499,0.1,2.198,1.099V58.909z M34.173,56.01h5.696v1.199h-5.596V56.01H34.173z
			 M34.973,62.207c0,1.099,0.799,1.899,1.899,1.899c1.099,0,1.899-0.8,1.899-1.899s-0.799-1.899-1.899-1.899
			C35.772,60.308,34.973,61.208,34.973,62.207z"/>
		<path class="st4" d="M43.466,54.911c0.6,0,1.099,0.5,1.099,1.099c0,0.6-0.5,1.099-1.099,1.099c-0.6,0-1.099-0.5-1.099-1.099
			C42.367,55.41,42.866,54.911,43.466,54.911z M44.465,58.909v10.295h-1.899V58.909H44.465z"/>
		<path class="st4" d="M48.462,58.909v3.798c0,0.4,0,0.8,0.4,1.199c0.2,0.2,0.6,0.3,0.999,0.3c0.4,0,0.699-0.1,0.999-0.3
			c0.4-0.3,0.4-0.8,0.4-1.199v-3.798h1.899v4.098c0,0.6-0.1,1.399-0.799,2.099c-0.6,0.5-1.599,0.8-2.398,0.8s-1.799-0.2-2.398-0.8
			c-0.699-0.7-0.799-1.499-0.799-2.099v-4.098H48.462z"/>
		<path class="st4" d="M55.257,58.909h1.899v0.8c0.699-0.9,1.599-1,1.998-1c1.399,0,1.998,0.9,2.098,1.199
			c0.3-0.5,0.999-1.199,2.198-1.199c0.999,0,1.499,0.5,1.799,0.8c0.4,0.6,0.5,1.099,0.5,1.899v4.198H63.85v-3.698
			c0-0.8-0.2-1.099-0.3-1.299c-0.2-0.3-0.6-0.3-0.799-0.3c-0.5,0-0.799,0.2-0.999,0.6s-0.3,0.9-0.3,1.299v3.398h-1.899v-3.698
			c0-0.8-0.2-1.099-0.3-1.299c-0.2-0.3-0.6-0.3-0.799-0.3c-0.5,0-0.799,0.2-0.999,0.6s-0.3,0.9-0.3,1.299v3.398h-1.899
			L55.257,58.909L55.257,58.909z"/>
		<path class="st4" d="M68.846,54.911c0.6,0,1.099,0.5,1.099,1.099c0,0.6-0.5,1.099-1.099,1.099c-0.6,0-1.099-0.5-1.099-1.099
			C67.747,55.41,68.247,54.911,68.846,54.911z M69.845,58.909v6.697h-1.899v-6.697C67.947,58.909,69.845,58.909,69.845,58.909z"/>
	</g>
</g>
</svg>
