<?xml version="1.0" encoding="utf-8"?>
<!-- Generator: Adobe Illustrator 27.4.1, SVG Export Plug-In . SVG Version: 6.00 Build 0)  -->
<svg version="1.1" id="Layer_1" xmlns="http://www.w3.org/2000/svg" xmlns:xlink="http://www.w3.org/1999/xlink" x="0px" y="0px"
	 viewBox="0 0 79.5 79.5" style="enable-background:new 0 0 79.5 79.5;" xml:space="preserve">
<g id="Group_283" transform="translate(142.836 -591.141) rotate(45)">
	<g>
		<path d="M373.2,480.9v1.7c10.1,0,19.2,4.1,25.8,10.7c6.6,6.6,10.7,15.7,10.7,25.8c0,10.1-4.1,19.2-10.7,25.8
			c-6.6,6.6-15.7,10.7-25.8,10.7c-10.1,0-19.2-4.1-25.8-10.7c-6.6-6.6-10.7-15.7-10.7-25.8c0-10.1,4.1-19.2,10.7-25.8
			c6.6-6.6,15.7-10.7,25.8-10.7V480.9v-1.7c-11,0-20.9,4.5-28.1,11.6c-7.2,7.2-11.6,17.1-11.6,28.1c0,11,4.5,20.9,11.6,28.1
			c7.2,7.2,17.1,11.6,28.1,11.6c11,0,20.9-4.5,28.1-11.6c7.2-7.2,11.6-17.1,11.6-28.1c0-11-4.4-20.9-11.6-28.1
			c-7.2-7.2-17.1-11.6-28.1-11.6V480.9z"/>
	</g>
	<path id="np_plus_2268151_000000" d="M373.2,499.1c-1.4,0-2.6,1.2-2.6,2.6v14.6H356c-1.4,0-2.6,1.2-2.6,2.6s1.2,2.6,2.6,2.6l0,0
		h14.6v14.6c0,1.4,1.2,2.6,2.6,2.6s2.6-1.2,2.6-2.6v-14.6h14.6c1.4,0,2.6-1.2,2.6-2.6s-1.2-2.6-2.6-2.6h-14.6v-14.6
		C375.8,500.3,374.7,499.1,373.2,499.1z"/>
</g>
</svg>
