<svg width="24" height="24" viewBox="0 0 24 24" fill="none" xmlns="http://www.w3.org/2000/svg">
<rect width="24" height="24" rx="12" fill="#494949"/>
<rect x="4" y="8.15625" width="8" height="1" rx="0.5" fill="white"/>
<rect x="4" y="11.1562" width="5" height="1" rx="0.5" fill="white"/>
<rect x="4" y="14.1562" width="5" height="1" rx="0.5" fill="white"/>
<path d="M15.2969 7.60938V11.6719H19.3594C19.6895 11.6719 19.9688 11.9512 19.9688 12.2812C19.9688 12.6367 19.6895 12.8906 19.3594 12.8906H15.2969V16.9531C15.2969 17.3086 15.0176 17.5625 14.6875 17.5625C14.332 17.5625 14.0781 17.3086 14.0781 16.9531V12.8906H10.0156C9.66016 12.8906 9.40625 12.6367 9.40625 12.2812C9.40625 11.9512 9.66016 11.6719 10.0156 11.6719H14.0781V7.60938C14.0781 7.2793 14.332 7 14.6875 7C15.0176 7 15.2969 7.2793 15.2969 7.60938Z" fill="white"/>
</svg>
