<svg width="24" height="24" viewBox="0 0 24 24" fill="none" xmlns="http://www.w3.org/2000/svg">
<rect width="24" height="24" rx="12" fill="#494949"/>
<path d="M11.6045 14.7727L8.79199 11.9602C8.56348 11.7493 8.56348 11.3801 8.79199 11.1692C9.00293 10.9407 9.37207 10.9407 9.58301 11.1692L11.4463 13.0149V7.61841C11.4463 7.31958 11.6924 7.05591 12.0088 7.05591C12.3076 7.05591 12.5713 7.31958 12.5713 7.61841V13.0149L14.417 11.1692C14.6279 10.9407 14.9971 10.9407 15.208 11.1692C15.4365 11.3801 15.4365 11.7493 15.208 11.9602L12.3955 14.7727C12.1846 15.0012 11.8154 15.0012 11.6045 14.7727Z" fill="white"/>
<rect x="8" y="15.9441" width="8" height="1" rx="0.5" fill="white"/>
</svg>
