<?xml version="1.0" encoding="utf-8"?>
<!-- Generator: Adobe Illustrator 25.4.1, SVG Export Plug-In . SVG Version: 6.00 Build 0)  -->
<svg version="1.1" id="Layer_1" xmlns="http://www.w3.org/2000/svg" xmlns:xlink="http://www.w3.org/1999/xlink" x="0px" y="0px"
	 viewBox="0 0 78 78" style="enable-background:new 0 0 78 78;" xml:space="preserve">
<style type="text/css">
	.st0{fill:#FFCC00;}
	.st1{fill:#FFFFFF;}
</style>
<g id="Group_44" transform="translate(-181.261 -181.264)">
	<g id="Group_42" transform="translate(181.261 181.264)">
		<rect id="Rectangle_1473" class="st0" width="78" height="78"/>
		<path id="Path_2260" class="st1" d="M12.7,65.5h19.6C32.7,44.4,44.1,33,65.3,32.3V12.7C49.8,13.1,36.7,18,27.6,26.9
			C18.1,36.1,13,49.5,12.7,65.5z"/>
	</g>
	<g id="Group_43" transform="translate(232.39 227.179)">
		<path id="Path_2261" d="M14.1,15.2v4.3H0v-0.1l5.6-7.5c1.7-2.3,2.7-3.5,2.7-5.1c0-1.3-0.9-2.1-2.4-2.1c-2,0-4,1.3-5.3,2.4V2.2
			C2.5,0.8,4.8,0,7.2,0c3.9,0,6.3,2.3,6.3,5.8c0,2.4-1.4,4.5-3.1,6.9l-1.9,2.6H14.1z"/>
	</g>
</g>
</svg>
