<?xml version="1.0" encoding="utf-8"?>
<!-- Generator: Adobe Illustrator 24.1.2, SVG Export Plug-In . SVG Version: 6.00 Build 0)  -->
<svg version="1.1" id="Layer_1" xmlns="http://www.w3.org/2000/svg" xmlns:xlink="http://www.w3.org/1999/xlink" x="0px" y="0px"
	 viewBox="0 0 121.2 80.7" style="enable-background:new 0 0 121.2 80.7;" xml:space="preserve">
<style type="text/css">
	.st0{fill:#9464FA;}
	.st1{fill:#FFFFFF;}
</style>
<rect class="st0" width="121.2" height="80.7"/>
<g>
	<rect x="33.1" y="12.9" class="st1" width="55" height="55"/>
	<path class="st0" d="M42.1,59.1h13.8c0.3-14.9,8.3-22.9,23.3-23.4V21.9c-11,0.3-20.2,3.7-26.6,10C45.9,38.3,42.2,47.7,42.1,59.1z"
		/>
	<path class="st0" d="M79.2,54.5c0,2.8-2.2,4.6-5.3,4.6c-1.7,0-3-0.5-3.9-1.1v-3.3c0.9,0.8,2.3,1.5,3.6,1.5c1.2,0,2.3-0.5,2.3-1.7
		s-1-1.8-2.4-1.8c-1.1,0-2.2,0.2-3.1,0.5v-8h8v3.1h-5.2V50c0.3-0.1,0.6-0.1,1-0.1C77,49.9,79.2,51.6,79.2,54.5"/>
</g>
</svg>
