<?xml version="1.0" encoding="UTF-8" standalone="no"?>
<!DOCTYPE svg PUBLIC "-//W3C//DTD SVG 1.1//EN" "http://www.w3.org/Graphics/SVG/1.1/DTD/svg11.dtd">
<svg width="100%" height="100%" viewBox="0 0 78 78" version="1.1" xmlns="http://www.w3.org/2000/svg" xmlns:xlink="http://www.w3.org/1999/xlink" xml:space="preserve" xmlns:serif="http://www.serif.com/" style="fill-rule:evenodd;clip-rule:evenodd;stroke-linejoin:round;stroke-miterlimit:2;">
    <g transform="matrix(1,0,0,1,-32,-1)">
        <g id="Group_52_00000161618824122086419020000006528153032090767266_" transform="matrix(1,0,0,1,181.2,181.264)">
            <rect id="Rectangle_1476_00000160871849929752402480000000901765433634467206_" x="-149.2" y="-180.3" width="78" height="78" style="fill:rgb(153,153,0);"/>
        </g>
        <g>
            <g>
                <path d="M64,86.2L16.3,37.9L47.3,37.3C58.3,37.1 67.3,36.2 74.8,34.6C78.9,33.7 83.5,32.4 87.4,28.6C88,28 91.2,24.9 91.4,21.1C91.5,19.2 90.8,16.9 88.8,14.9C86.3,12.4 83.4,11.8 81.2,12.1C77.9,12.5 73.8,15.3 71.7,17.3L55.7,1.2C63.6,-6.5 72.7,-8.7 79,-8.7C87.1,-8.7 95,-5.6 102.4,1.9C111.3,10.9 113,19.6 113,25C113,29.8 111.8,37.8 104,45.5C96.4,53 87.7,54.7 77.3,54.3L57.9,53.5L77.3,73L64,86.2Z" style="fill:rgb(102,129,110);fill-rule:nonzero;"/>
            </g>
        </g>
        <g>
            <path d="M41.5,41.3L41.5,49.9L44.7,49.9L44.7,51.6L39.5,51.6L39.5,41.3L41.5,41.3Z" style="fill:white;fill-rule:nonzero;"/>
            <path d="M45.3,42L49.1,42L49.1,43.2L45.3,43.2L45.3,42ZM48.1,44.9L48.1,51.6L46.2,51.6L46.2,44.9L48.1,44.9Z" style="fill:white;fill-rule:nonzero;"/>
            <path d="M55.2,44.9L57.3,44.9L57.3,51.3C57.3,52.3 57.2,53.4 56.4,54.2C55.9,54.7 55.1,55.1 53.7,55.1C52.4,55.1 51.6,54.7 51.2,54.3C50.7,53.9 50.3,53.1 50.1,52.3L52.1,52.3C52.2,52.6 52.3,52.9 52.6,53.1C53,53.4 53.5,53.5 53.7,53.5C54.2,53.5 54.6,53.3 54.8,53.1C55.2,52.7 55.3,52.2 55.3,51.6L55.3,50.7C54.6,51.7 53.7,51.8 53.2,51.8C52.3,51.8 51.5,51.5 50.9,50.9C50.4,50.4 49.8,49.5 49.8,48.2C49.8,47.1 50.2,46.2 50.8,45.5C51.4,44.9 52.2,44.6 53.1,44.6C54.4,44.6 54.9,45.3 55.2,45.7L55.2,44.9ZM52.5,46.8C52.2,47.1 51.9,47.5 51.9,48.2C51.9,48.8 52.1,49.2 52.4,49.5C52.8,49.9 53.3,50.1 53.8,50.1C54.3,50.1 54.7,49.9 55.1,49.6C55.5,49.2 55.7,48.7 55.7,48.2C55.7,47.6 55.4,47.1 55.2,46.9C54.8,46.5 54.4,46.4 53.9,46.4C53.2,46.3 52.8,46.6 52.5,46.8Z" style="fill:white;fill-rule:nonzero;"/>
            <path d="M65.7,45.6C66.4,46.2 66.8,47.1 66.8,48.2C66.8,49.3 66.3,50.2 65.7,50.8C65.1,51.3 64.3,51.7 63,51.7C61.7,51.7 60.9,51.3 60.3,50.8C59.6,50.2 59.2,49.3 59.2,48.2C59.2,47.1 59.7,46.2 60.3,45.6C60.9,45.1 61.7,44.7 63,44.7C64.3,44.7 65.1,45.1 65.7,45.6ZM64.9,48.2C64.9,47.1 64.1,46.3 63,46.3C61.9,46.3 61.1,47.2 61.1,48.2C61.1,49.2 61.9,50.1 63,50.1C64.1,50.1 64.9,49.3 64.9,48.2Z" style="fill:white;fill-rule:nonzero;"/>
            <path d="M39.2,59.9L41.1,59.9L41.1,60.7C41.8,59.8 42.7,59.7 43.1,59.7C44.5,59.7 45.1,60.6 45.2,60.9C45.5,60.4 46.2,59.7 47.4,59.7C48.4,59.7 48.9,60.2 49.2,60.5C49.6,61.1 49.7,61.6 49.7,62.4L49.7,66.6L47.8,66.6L47.8,62.9C47.8,62.1 47.6,61.8 47.5,61.6C47.3,61.3 46.9,61.3 46.7,61.3C46.2,61.3 45.9,61.5 45.7,61.9C45.5,62.3 45.4,62.8 45.4,63.2L45.4,66.6L43.5,66.6L43.5,62.9C43.5,62.1 43.3,61.8 43.2,61.6C43,61.3 42.6,61.3 42.4,61.3C41.9,61.3 41.6,61.5 41.4,61.9C41.2,62.3 41.1,62.8 41.1,63.2L41.1,66.6L39.2,66.6L39.2,59.9Z" style="fill:white;fill-rule:nonzero;"/>
            <path d="M53.8,59.9L53.8,63.7C53.8,64.1 53.8,64.5 54.2,64.9C54.4,65.1 54.8,65.2 55.2,65.2C55.6,65.2 55.9,65.1 56.2,64.9C56.6,64.6 56.6,64.1 56.6,63.7L56.6,59.9L58.5,59.9L58.5,64C58.5,64.6 58.4,65.4 57.7,66.1C57.1,66.6 56.1,66.9 55.3,66.9C54.5,66.9 53.5,66.7 52.9,66.1C52.2,65.4 52.1,64.6 52.1,64L52.1,59.9L53.8,59.9Z" style="fill:white;fill-rule:nonzero;"/>
            <path d="M65.6,61.9C65.2,61.5 64.7,61.3 64,61.3C62.7,61.3 62.1,62.2 62.1,63.2C62.1,64.3 62.9,65.1 64.1,65.1C64.5,65.1 65.1,65 65.6,64.5L65.6,66.3C65.2,66.5 64.6,66.7 63.9,66.7C62.8,66.7 61.9,66.3 61.3,65.7C60.8,65.2 60.2,64.4 60.2,63.1C60.2,61.9 60.7,61 61.4,60.4C62.2,59.7 63.2,59.5 63.8,59.5C64.5,59.5 65.1,59.6 65.6,59.9L65.6,61.9Z" style="fill:white;fill-rule:nonzero;"/>
            <path d="M68.4,55.9C69,55.9 69.5,56.4 69.5,57C69.5,57.6 69,58.1 68.4,58.1C67.8,58.1 67.3,57.6 67.3,57C67.3,56.4 67.8,55.9 68.4,55.9ZM69.3,59.9L69.3,66.6L67.4,66.6L67.4,59.9L69.3,59.9Z" style="fill:white;fill-rule:nonzero;"/>
            <path d="M71.4,59.9L73.4,59.9L73.4,60.8C73.8,60.3 74.4,59.7 75.5,59.7C76.1,59.7 77,59.9 77.5,60.5C78,61.1 78,61.7 78,62.4L78,66.6L76.1,66.6L76.1,62.9C76.1,62.5 76.1,61.9 75.7,61.6C75.4,61.3 75,61.3 74.8,61.3C74.3,61.3 73.9,61.5 73.6,61.9C73.3,62.3 73.3,62.8 73.3,63.2L73.3,66.6L71.4,66.6L71.4,59.9ZM74.1,67.4L75.8,67.6L74.3,70.8L73.1,70.6L74.1,67.4Z" style="fill:white;fill-rule:nonzero;"/>
            <path d="M85.3,59.9L87.2,59.9L87.2,66.6L85.3,66.6L85.3,65.7C84.6,66.7 83.7,66.8 83.2,66.8C81.1,66.8 79.8,65.2 79.8,63.2C79.8,61.2 81.1,59.6 83.1,59.6C83.6,59.6 84.6,59.7 85.3,60.7L85.3,59.9ZM81.8,63.2C81.8,64.3 82.6,65.1 83.7,65.1C84.8,65.1 85.6,64.3 85.6,63.2C85.6,62.1 84.8,61.3 83.7,61.3C82.6,61.3 81.8,62.2 81.8,63.2Z" style="fill:white;fill-rule:nonzero;"/>
            <path d="M93,61.5C92.6,61.1 92.1,61.1 91.9,61.1C91.5,61.1 91.2,61.3 91.2,61.6C91.2,61.8 91.3,62 91.8,62.2L92.2,62.3C92.7,62.5 93.5,62.7 93.9,63.3C94.1,63.6 94.2,64 94.2,64.4C94.2,65 94,65.6 93.5,66.1C93,66.6 92.3,66.8 91.5,66.8C90.1,66.8 89.3,66.1 88.9,65.7L89.9,64.6C90.3,65 90.8,65.4 91.4,65.4C91.9,65.4 92.3,65.1 92.3,64.7C92.3,64.3 92,64.1 91.7,64L91.3,63.8C90.8,63.6 90.3,63.4 89.9,63C89.6,62.7 89.4,62.3 89.4,61.7C89.4,61 89.7,60.5 90.1,60.2C90.6,59.8 91.3,59.7 91.9,59.7C92.4,59.7 93.2,59.8 94,60.4L93,61.5Z" style="fill:white;fill-rule:nonzero;"/>
        </g>
    </g>
</svg>
